<svg width="19" height="19" viewBox="0 0 19 19" fill="none" xmlns="http://www.w3.org/2000/svg">
<path d="M18.9999 8.93774V10.0512C18.9869 10.1033 18.9739 10.1554 18.9674 10.214C18.8632 11.6726 18.4464 13.04 17.6911 14.2968C16.1869 16.7907 13.999 18.3144 11.134 18.8483C10.7758 18.9134 10.4112 18.946 10.053 18.9981H8.93957C8.88096 18.9851 8.82236 18.9721 8.75724 18.9655C8.16469 18.8614 7.56563 18.8158 6.99261 18.653C3.00103 17.5525 0.214079 14.0819 0.0122205 9.94704C-0.0789413 8.05217 0.337799 6.26801 1.33407 4.65314C3.11172 1.77503 5.70332 0.21877 9.08282 0.0169114C10.8149 -0.0872736 12.4688 0.290396 13.986 1.1369C16.6492 2.61502 18.2837 4.86151 18.8502 7.86985C18.9153 8.22798 18.9478 8.58612 18.9999 8.95077V8.93774ZM9.59723 3.92385C8.58143 3.91733 7.66981 4.19733 6.89494 4.86802C6.27634 5.40848 5.87913 6.07266 5.82704 6.91265C5.80099 7.30986 5.98983 7.58985 6.3089 7.7852C6.83633 8.10427 7.4354 7.86985 7.68283 7.26427C7.79353 6.99079 7.8912 6.71079 8.02144 6.44382C8.18422 6.11173 8.37957 5.80569 8.73771 5.6429C9.21956 5.42801 9.72746 5.40197 10.2223 5.57778C11.1209 5.89685 11.4465 6.91265 10.88 7.63543C10.7823 7.75915 10.6716 7.88287 10.5544 7.99357C10.0986 8.42333 9.62979 8.83356 9.18701 9.27635C8.62701 9.83634 8.3926 10.5266 8.43166 11.3145C8.45771 11.8224 8.77678 12.1545 9.26514 12.1935C9.747 12.2326 10.0726 11.9852 10.1963 11.4838C10.2223 11.3731 10.2549 11.2689 10.2744 11.1582C10.3461 10.761 10.5349 10.4289 10.8279 10.1554C11.3163 9.70611 11.7981 9.25681 12.28 8.80751C13.7125 7.47264 13.2893 5.57127 12.0326 4.65965C11.3033 4.1257 10.4763 3.93036 9.59072 3.92385H9.59723ZM10.5023 13.9777C10.5023 13.3591 10.0465 12.8772 9.42793 12.8707C8.7898 12.8642 8.29492 13.3396 8.29492 13.9647C8.29492 14.5963 8.75073 15.0586 9.39537 15.0651C10.0335 15.0651 10.5023 14.6158 10.5089 13.9777H10.5023Z" fill="#9D9C9C"/>
</svg>
