<svg width="17" height="14" viewBox="0 0 17 14" fill="none" xmlns="http://www.w3.org/2000/svg">
<path d="M16.9913 4.14695V11.8141C16.9913 11.8141 16.9742 11.8398 16.9656 11.857C16.7424 12.9732 15.9696 13.5999 14.8449 13.5999C10.6035 13.5999 6.3621 13.5999 2.1207 13.5999C0.875753 13.5999 0 12.7242 0 11.4792C0 10.5949 0 9.71057 0 8.82623C0 7.34946 0 5.8727 0 4.39594C0 3.29696 0.815653 2.43837 1.90605 2.37827C2.4813 2.34393 3.05655 2.3611 3.6318 2.36969C3.76918 2.36969 3.83786 2.32676 3.90655 2.21514C4.17271 1.79444 4.45604 1.38232 4.73079 0.970197C5.16008 0.317675 5.76109 0.00858582 6.53381 0C7.84744 0 9.15249 0 10.4661 0C11.2388 0 11.8399 0.317675 12.2691 0.970197C12.5439 1.3909 12.8358 1.82019 13.1106 2.2409C13.1707 2.32676 13.2308 2.36969 13.3338 2.36969C13.8575 2.36969 14.3727 2.36969 14.8964 2.36969C15.7121 2.36969 16.3388 2.70453 16.7424 3.42574C16.8626 3.64898 16.9141 3.90655 16.9999 4.15554L16.9913 4.14695ZM8.49138 11.9343C11.0414 11.9171 13.0505 9.90804 13.0762 7.3924C13.102 4.87675 11.0328 2.79898 8.49997 2.79039C5.9929 2.78181 3.94089 4.80806 3.91514 7.33229C3.88938 9.84794 5.94998 11.9257 8.49138 11.9429V11.9343ZM14.304 5.23735C14.4671 5.22877 14.6388 5.23735 14.8105 5.20301C15.0853 5.15149 15.2742 4.89392 15.2656 4.61059C15.257 4.31008 15.0338 4.05251 14.7504 4.03534C14.4499 4.01816 14.158 4.01816 13.8575 4.03534C13.5656 4.05251 13.3424 4.3015 13.3252 4.59341C13.308 4.87675 13.5141 5.14291 13.806 5.19442C13.9691 5.22018 14.1323 5.22018 14.3126 5.22877L14.304 5.23735Z" fill="#9D9C9C"/>
<path d="M8.47393 9.90807C7.05727 9.8909 5.91535 8.74899 5.94111 7.35808C5.95828 5.95859 7.12595 4.80809 8.50827 4.83385C9.93352 4.85961 11.0668 6.00152 11.0411 7.38384C11.0153 8.79191 9.86483 9.92525 8.47393 9.90807Z" fill="#9D9C9C"/>
</svg>
