<svg width="12" height="12" viewBox="0 0 12 12" fill="none" xmlns="http://www.w3.org/2000/svg">
<path d="M4.90744 0H7.06525C7.25645 0.0546282 7.33839 0.191199 7.37481 0.382398C7.42033 0.628225 7.47496 0.874051 7.5387 1.11077C7.5478 1.1563 7.59333 1.21092 7.63885 1.22913C7.82094 1.31108 8.00304 1.38391 8.18513 1.45675C8.24886 1.48407 8.28528 1.48407 8.33991 1.44765C8.55842 1.30197 8.77694 1.1654 8.99545 1.01973C9.21396 0.883156 9.36874 0.892262 9.55084 1.07436C9.99697 1.52049 10.4431 1.96661 10.8892 2.41275C11.0713 2.59484 11.0895 2.74962 10.9439 2.96813C10.7982 3.19575 10.6525 3.41427 10.5159 3.64188C10.4977 3.6783 10.4886 3.73293 10.5068 3.77845C10.5797 3.96965 10.6525 4.15174 10.7436 4.33384C10.7618 4.37936 10.8164 4.42489 10.8619 4.43399C11.1077 4.49772 11.3536 4.55235 11.5994 4.59788C11.7815 4.6343 11.9181 4.72534 11.9727 4.90744V7.06525C11.9181 7.24735 11.7906 7.33839 11.5994 7.37481C11.3536 7.42033 11.1077 7.47496 10.8619 7.5387C10.8164 7.5478 10.7618 7.59333 10.7436 7.63885C10.6616 7.82094 10.5797 8.01214 10.5068 8.20334C10.4886 8.23976 10.4977 8.30349 10.5159 8.33991C10.6525 8.56753 10.7982 8.78604 10.9439 9.01366C11.0804 9.23217 11.0713 9.38695 10.8892 9.56905C10.4431 10.0152 10.0061 10.4613 9.55994 10.8983C9.36874 11.0895 9.22307 11.1077 8.99545 10.9621C8.77694 10.8255 8.55842 10.6798 8.33081 10.5432C8.29439 10.5159 8.23066 10.5159 8.18513 10.5341C7.99393 10.607 7.81184 10.6798 7.62064 10.7709C7.57512 10.7891 7.52959 10.8437 7.52049 10.8892C7.45675 11.1442 7.41123 11.3991 7.3566 11.654C7.30198 11.8907 7.17451 12 6.92868 12C6.29135 12 5.65402 12 5.0258 12C4.77997 12 4.6525 11.8999 4.59788 11.654C4.54325 11.3991 4.48862 11.1442 4.42489 10.8892C4.41578 10.8437 4.37026 10.7891 4.32474 10.7709C4.14264 10.6889 3.96055 10.6161 3.77845 10.5432C3.71472 10.5159 3.6783 10.5159 3.62367 10.5524C3.40516 10.698 3.18665 10.8346 2.96813 10.9803C2.74962 11.1168 2.59484 11.1077 2.41275 10.9256C1.96662 10.4795 1.52048 10.0334 1.07435 9.58726C0.89226 9.40516 0.874051 9.25038 1.01973 9.03187C1.1563 8.81335 1.30197 8.59484 1.44765 8.37633C1.48407 8.3217 1.48407 8.27618 1.45675 8.22155C1.37481 8.03946 1.31108 7.85736 1.22913 7.67527C1.21092 7.62974 1.1563 7.58422 1.11077 7.57512C0.855842 7.51138 0.60091 7.46586 0.345978 7.41123C0.109256 7.3566 0 7.22914 0 6.98331C0 6.34598 0 5.70865 0 5.08042C0 4.8346 0.109256 4.70713 0.345978 4.65251C0.60091 4.59788 0.855842 4.54325 1.11077 4.48862C1.18361 4.47041 1.21092 4.44309 1.23824 4.37936C1.31108 4.19727 1.37481 4.02428 1.45675 3.85129C1.48407 3.78756 1.49317 3.73293 1.44765 3.6692C1.30197 3.45979 1.1654 3.24128 1.02883 3.02276C0.892261 2.80425 0.901365 2.64947 1.08346 2.46737C1.52959 2.02124 1.97572 1.57511 2.42185 1.12898C2.60395 0.946889 2.75872 0.92868 2.97724 1.07436C3.20486 1.22003 3.42337 1.36571 3.65099 1.50228C3.6874 1.52049 3.75114 1.52959 3.78756 1.51138C3.97876 1.43854 4.16995 1.3566 4.36115 1.27466C4.39757 1.25645 4.4431 1.21093 4.4522 1.17451C4.51593 0.928679 4.57056 0.673747 4.61609 0.418816C4.65251 0.236722 4.74355 0.109256 4.92565 0.0455228L4.90744 0ZM8.1305 5.97269C8.11229 4.77997 7.13809 3.82398 5.97269 3.84219C4.77997 3.85129 3.81487 4.8346 3.83308 6.00911C3.85129 7.20182 4.8346 8.16692 6 8.13961C7.19272 8.11229 8.14871 7.13809 8.1305 5.97269Z" fill="#F0F276"/>
</svg>
