<svg width="19" height="19" viewBox="0 0 19 19" fill="none" xmlns="http://www.w3.org/2000/svg">
<path d="M9.5 19C14.7467 19 19 14.7467 19 9.5C19 4.25329 14.7467 0 9.5 0C4.25329 0 0 4.25329 0 9.5C0 14.7467 4.25329 19 9.5 19Z" fill="#053B2B"/>
<path d="M9.019 9.98891C10.4979 9.98891 11.6981 8.79687 11.7062 7.3058C11.7142 5.8309 10.5182 4.62269 9.05133 4.61864C7.54006 4.61864 6.33589 5.80261 6.33993 7.30176C6.33993 8.78879 7.53602 9.98487 9.019 9.98891ZM11.7951 10.7769C11.5041 10.5102 11.1808 10.3162 10.8212 10.1788C10.7485 10.1505 10.6919 10.1546 10.6192 10.195C9.54431 10.7648 8.47349 10.7607 7.39863 10.1869C7.35418 10.1627 7.28548 10.1586 7.24104 10.1748C6.84099 10.3122 6.48944 10.5344 6.18638 10.8294C5.4267 11.5608 5.18829 12.4781 5.26911 13.5004C5.29335 13.7954 5.51156 14.0257 5.8025 14.0823C6.06919 14.1308 6.33589 14.1752 6.60662 14.2156C7.51177 14.353 8.425 14.4015 9.33823 14.3853C9.38268 14.3853 9.43117 14.3853 9.46754 14.3853C9.46754 14.256 9.45541 14.1388 9.46754 14.0257C9.49178 13.8196 9.54027 13.6176 9.56047 13.4155C9.5928 13.0761 9.74635 12.8135 9.99284 12.5791C10.5747 12.0215 11.1364 11.4436 11.7062 10.8739C11.7344 10.8456 11.7587 10.8173 11.791 10.785L11.7951 10.7769ZM11.7951 11.6537C11.294 12.1588 10.7889 12.6599 10.2919 13.169C10.2595 13.2014 10.2313 13.2539 10.2232 13.3024C10.1747 13.5529 10.1302 13.7994 10.0939 14.05C10.0575 14.2843 10.203 14.4177 10.4373 14.3732C10.599 14.3449 10.7606 14.3207 10.9182 14.2884C11.0798 14.256 11.2415 14.252 11.3708 14.1146C11.8193 13.6499 12.28 13.1973 12.7406 12.7407C12.7689 12.7124 12.7931 12.6841 12.8133 12.668C12.4739 12.3286 12.1426 11.9972 11.7991 11.6537H11.7951ZM13.274 12.2114C13.3831 12.0942 13.5043 11.981 13.6013 11.8517C13.8114 11.5689 13.767 11.1648 13.5124 10.9223C13.2578 10.6799 12.8618 10.6557 12.5871 10.8779C12.4658 10.9749 12.3729 11.1001 12.2719 11.2092C12.5951 11.5325 12.9265 11.8639 13.274 12.2114Z" fill="#F0F276"/>
<path d="M11.7953 11.6538C12.1387 11.9972 12.4701 12.3286 12.8095 12.668C12.7893 12.6882 12.7651 12.7165 12.7368 12.7408C12.2802 13.1974 11.8195 13.6499 11.3669 14.1146C11.2336 14.252 11.0719 14.2561 10.9144 14.2884C10.7568 14.3207 10.5951 14.3409 10.4335 14.3733C10.1991 14.4177 10.0537 14.2844 10.09 14.05C10.1264 13.7995 10.1708 13.5489 10.2193 13.3024C10.2274 13.2539 10.2557 13.2055 10.288 13.1691C10.7891 12.664 11.2902 12.1589 11.7912 11.6538H11.7953Z" fill="#F0F276"/>
</svg>
