<svg width="245" height="51" viewBox="0 0 245 51" fill="none" xmlns="http://www.w3.org/2000/svg">
<path fill-rule="evenodd" clip-rule="evenodd" d="M233.521 0.314053C230.201 1.76753 228.534 4.51501 228.534 8.53265V10.2977H230.056H231.577V8.5857C231.577 6.23878 232.29 4.74769 233.913 3.69779C235.996 2.35108 238.203 3.00882 239.501 5.36347C240.039 6.34018 240.229 6.43654 241.613 6.43654C243.251 6.43654 243.228 6.48925 242.521 4.40321C242.114 3.20087 240.673 1.5634 239.384 0.837158C237.891 -0.00256385 234.862 -0.272846 233.521 0.314053ZM236.446 1.4573C234.057 1.72086 233.341 1.98443 232.313 2.97994C231.123 4.13293 230.19 5.92787 229.778 7.85812L229.508 9.12257L229.477 7.94508C229.376 4.03455 232.096 1.1897 235.837 1.29345C236.916 1.32333 237.132 1.38142 236.446 1.4573ZM240.774 7.46294C240.298 7.83093 240.098 8.32751 240.098 9.14171V10.2977H241.619H243.141V8.96645C243.141 7.9941 242.982 7.54151 242.552 7.28768C241.771 6.82668 241.572 6.84616 240.774 7.46294ZM227.012 14.312V17.319L229.219 17.4177C231.611 17.5248 232.133 18.1178 229.99 18.2951C229.278 18.3538 228.581 18.5804 228.44 18.7987C228.245 19.1005 228.146 19.0948 228.029 18.7755C227.749 18.0147 227.012 18.3186 227.012 19.1952C227.012 19.9957 227.096 20.0346 228.806 20.0346C230.151 20.0346 230.645 19.9037 230.782 19.5098C231.018 18.8289 231.577 19.2117 231.577 20.0544C231.577 20.6416 231.351 20.7061 229.295 20.7061C227.469 20.7061 227.012 20.8068 227.012 21.2097C227.012 21.6237 227.553 21.7134 230.056 21.7134C232.558 21.7134 233.099 21.6237 233.099 21.2097C233.099 20.8965 233.386 20.7061 233.859 20.7061C234.744 20.7061 234.851 21.2776 234.088 21.9175C233.723 22.2224 232.52 22.3667 230.284 22.3741L227.012 22.3849V25.4067V28.4285H231.577H236.142V27.5891C236.142 27.0666 236.314 26.7497 236.598 26.7497C236.882 26.7497 237.055 27.0666 237.055 27.5891C237.055 28.0507 237.2 28.4285 237.377 28.4285C237.564 28.4285 237.66 27.8983 237.605 27.1694C237.53 26.1581 237.376 25.8892 236.826 25.8029C236.331 25.7253 236.142 25.4705 236.142 24.8795C236.142 24.2332 235.984 24.0637 235.381 24.0637C234.962 24.0637 234.62 23.9126 234.62 23.7279C234.62 23.5385 235.482 23.3921 236.598 23.3921C237.714 23.3921 238.576 23.5385 238.576 23.7279C238.576 23.9126 238.234 24.0637 237.815 24.0637C237.342 24.0637 237.055 24.254 237.055 24.5673C237.055 24.8805 237.342 25.0709 237.815 25.0709C238.289 25.0709 238.576 25.2613 238.576 25.5745C238.576 25.8515 238.713 26.0782 238.88 26.0782C239.048 26.0782 239.185 26.3804 239.185 26.7497C239.185 27.119 239.048 27.4212 238.88 27.4212C238.713 27.4212 238.576 27.6478 238.576 27.9248C238.576 28.6155 239.073 28.5601 239.326 27.8409C239.522 27.2845 239.554 27.2852 239.935 27.8563C240.271 28.3596 240.708 28.4429 242.576 28.36L244.814 28.2606V27.0854C244.814 26.053 244.713 25.8975 243.978 25.8042C243.32 25.7206 243.141 25.5225 243.141 24.8809C243.141 24.3783 242.965 24.0637 242.684 24.0637C242.433 24.0637 242.228 23.9126 242.228 23.7279C242.228 23.5432 242.639 23.3921 243.141 23.3921C243.919 23.3921 244.054 23.5197 244.054 24.2594C244.054 25.5077 244.792 25.0971 244.91 23.7836C244.976 23.0436 244.859 22.6652 244.53 22.5504C243.05 22.0357 242.98 21.9457 243.901 21.7429C244.744 21.5576 244.821 21.4196 244.907 19.949L245 18.3558H243.827C243.182 18.3558 242.484 18.5435 242.276 18.7728C241.993 19.0854 241.843 19.0921 241.68 18.8C241.56 18.5858 240.994 18.3605 240.423 18.2991C239.076 18.155 238.779 17.3486 240.072 17.3486H241.011V14.8304V12.3122H242.547H244.082L243.992 14.4107C243.882 16.9587 243.328 17.1938 243.201 14.7465C243.116 13.1278 243.048 12.9838 242.364 12.9838C241.672 12.9838 241.619 13.1036 241.619 14.6864C241.619 16.7721 242.078 17.3486 243.74 17.3486H244.99L244.902 14.4107L244.814 11.4729L241.709 11.3775L238.604 11.2818L238.514 13.479C238.397 16.3185 237.842 16.3265 237.725 13.4904C237.609 10.6603 237.055 10.6415 237.055 13.4676C237.055 15.5466 236.64 16.6183 236.259 15.5231C236.142 15.1863 235.697 14.9983 235.019 14.9983C234.307 14.9983 234.003 14.861 234.089 14.5786C234.16 14.3479 234.616 14.1542 235.103 14.1485C235.925 14.1387 235.996 14.0353 236.083 12.7215C236.138 11.8845 236.045 11.305 235.855 11.305C235.678 11.305 235.533 11.7582 235.533 12.3122C235.533 12.9838 235.381 13.3195 235.077 13.3195C234.772 13.3195 234.62 12.9838 234.62 12.3122C234.62 11.6407 234.468 11.305 234.164 11.305C233.859 11.305 233.707 11.6407 233.707 12.3122C233.707 12.8662 233.57 13.3195 233.403 13.3195C233.236 13.3195 233.099 12.8662 233.099 12.3122V11.305H230.056H227.012V14.312ZM55.3837 30.7787V49.9168H66.8071H78.2304L78.1425 46.9789L78.0545 44.0411L69.4579 43.9517L60.8612 43.8628V27.7516V11.6407H58.1225H55.3837V30.7787ZM134.199 30.7787V49.9168H137.09H139.981V46.4111C139.981 44.4158 140.113 42.8152 140.288 42.6964C140.457 42.5812 141.362 41.4259 142.3 40.1288C143.238 38.8318 144.114 37.8974 144.247 38.0519C144.38 38.2066 145.136 39.693 145.928 41.355C146.719 43.017 147.747 45.0567 148.213 45.8877C148.679 46.7187 149.302 47.9654 149.598 48.6577L150.136 49.9168H153.307C155.844 49.9168 156.447 49.8261 156.321 49.4635C156.234 49.2144 154.832 46.4568 153.206 43.336C150.254 37.6728 149.61 36.4248 148.417 34.0564L147.785 32.8017L148.813 31.3703C149.378 30.5833 151.012 28.3794 152.443 26.4727C153.873 24.5663 155.09 22.8664 155.145 22.6955C155.203 22.5185 153.94 22.3849 152.205 22.3849H149.164L144.649 28.823L140.133 35.2611L140.053 23.4509L139.973 11.6407H137.086H134.199V30.7787ZM160.978 30.7787V49.9168H163.565H166.151V36.9231C166.151 29.7765 166.265 24.0727 166.405 24.2483C166.544 24.4236 166.968 25.4738 167.347 26.5818C167.725 27.6898 168.651 30.4094 169.405 32.6254C170.158 34.8414 171.223 37.9387 171.771 39.5084C172.319 41.078 172.975 42.9666 173.228 43.7053L173.689 45.0483L175.976 45.1457L178.264 45.2434L178.741 43.8027C182.107 33.6364 183.737 28.7904 184.59 26.4139L185.615 23.56L185.621 36.7384L185.627 49.9168H188.366H191.104V30.7677V11.6186L187.7 11.7136L184.295 11.8086L183.004 15.8377C181.467 20.6346 179.416 26.9333 178.631 29.2678C178.321 30.1912 177.625 32.2759 177.084 33.9009C176.544 35.5256 176.005 36.7344 175.887 36.587C175.77 36.4392 174.955 34.1279 174.076 31.4503C173.197 28.7726 171.757 24.391 170.877 21.7134C169.997 19.0357 168.897 15.6742 168.434 14.2428L167.591 11.6407H164.285H160.978V30.7787ZM232.186 14.4946V16.6771H230.056H227.925V14.4946V12.3122H230.056H232.186V14.4946ZM240.036 14.4107C239.986 15.565 239.809 16.5092 239.641 16.5092C239.474 16.5092 239.296 15.565 239.246 14.4107C239.171 12.6718 239.239 12.3122 239.641 12.3122C240.043 12.3122 240.111 12.6718 240.036 14.4107ZM228.534 14.3268V15.6698H230.056H231.577V14.3268V12.9838H230.056H228.534V14.3268ZM233.707 16.3413C233.707 16.526 233.57 16.6771 233.403 16.6771C233.236 16.6771 233.099 16.526 233.099 16.3413C233.099 16.1566 233.236 16.0055 233.403 16.0055C233.57 16.0055 233.707 16.1566 233.707 16.3413ZM236.142 17.0232C236.142 17.6182 236.331 18.1215 236.598 18.2343C237.318 18.5391 237.131 19.0273 236.294 19.0273C235.732 19.0273 235.533 18.849 235.533 18.3454C235.533 17.97 235.328 17.5762 235.077 17.4701C234.826 17.3637 234.62 16.9906 234.62 16.6411C234.62 16.1869 234.837 16.0055 235.381 16.0055C236.025 16.0055 236.142 16.1617 236.142 17.0232ZM237.663 17.0128C237.663 17.1975 237.526 17.3486 237.359 17.3486C237.191 17.3486 237.055 17.1975 237.055 17.0128C237.055 16.8281 237.191 16.6771 237.359 16.6771C237.526 16.6771 237.663 16.8281 237.663 17.0128ZM233.707 17.8522C233.707 18.1292 233.58 18.3558 233.424 18.3558C233.268 18.3558 233.097 18.6839 233.044 19.0851C232.859 20.4707 232.186 20.184 232.186 18.7194C232.186 17.4808 232.259 17.3486 232.946 17.3486C233.42 17.3486 233.707 17.5389 233.707 17.8522ZM235.274 19.531C235.274 19.7066 235.127 19.904 234.947 19.9701C234.767 20.0363 234.62 19.8389 234.62 19.531C234.62 19.2231 234.767 19.0257 234.947 19.0918C235.127 19.1579 235.274 19.3554 235.274 19.531ZM241.619 19.531C241.619 19.8946 241.281 20.0346 240.402 20.0346C239.732 20.0346 239.185 20.1857 239.185 20.3704C239.185 20.555 238.72 20.7061 238.152 20.7061C237.496 20.7061 237.053 20.8978 236.937 21.2309C236.837 21.5196 236.617 21.662 236.448 21.5468C235.986 21.2322 236.08 20.7061 236.598 20.7061C236.849 20.7061 237.055 20.555 237.055 20.3704C237.055 20.1857 237.519 20.0346 238.087 20.0346C238.724 20.0346 239.187 19.8419 239.295 19.531C239.405 19.215 239.87 19.0273 240.545 19.0273C241.297 19.0273 241.619 19.1784 241.619 19.531ZM244.054 20.3704C244.054 20.555 243.848 20.7061 243.597 20.7061C243.346 20.7061 243.141 20.555 243.141 20.3704C243.141 20.1857 243.346 20.0346 243.597 20.0346C243.848 20.0346 244.054 20.1857 244.054 20.3704ZM241.619 21.2097C241.619 21.4867 241.756 21.7134 241.923 21.7134C242.091 21.7134 242.228 21.8645 242.228 22.0491C242.228 22.2338 241.954 22.3849 241.619 22.3849C241.173 22.3849 241.011 22.1609 241.011 21.5455C241.011 21.0838 241.147 20.7061 241.315 20.7061C241.482 20.7061 241.619 20.9327 241.619 21.2097ZM240.043 22.6367C240.108 23.1447 239.983 23.3921 239.662 23.3921C239.4 23.3921 239.185 23.1655 239.185 22.8885C239.185 22.6115 239.048 22.3849 238.88 22.3849C238.713 22.3849 238.576 22.2234 238.576 22.0256C238.576 21.3001 239.944 21.8698 240.043 22.6367ZM37.0867 22.5541C36.256 22.8482 35.1717 23.6121 34.4417 24.4179L33.2044 25.7831L33.1106 24.1677L33.0172 22.5528L30.2024 22.4561L27.3876 22.3597V36.1381V49.9168H30.2785H33.1694V40.4834C33.1694 31.4691 33.1974 31.0067 33.802 30.07C35.0588 28.1226 37.6095 27.5179 39.778 28.6534C41.9237 29.7769 41.9918 30.1438 41.993 40.5996L41.9943 49.9168H44.908H47.822L47.7228 39.4244C47.6303 29.6123 47.5825 28.8341 46.9873 27.4212C46.0954 25.3043 44.936 23.8961 43.4157 23.0843C41.6711 22.1522 38.8818 21.9185 37.0867 22.5541ZM89.5829 22.5011C86.1725 23.4623 83.8504 25.8045 82.9025 29.239C82.6432 30.1781 82.3517 32.6153 82.2549 34.6547C81.8736 42.6708 83.5765 47.1777 87.7923 49.3104C89.0969 49.9701 89.8132 50.0803 92.8134 50.0823C95.9648 50.0843 96.4839 49.9963 98.0307 49.1959C99.2291 48.5761 100.126 47.7803 100.997 46.5649C102.911 43.893 103.228 42.2142 103.109 35.3826C103.018 30.213 102.936 29.4431 102.328 28.0823C101.293 25.7646 99.4899 23.8941 97.4988 23.0722C95.3264 22.1754 91.6729 21.9118 89.5829 22.5011ZM117.24 22.403C114.3 23.0433 111.898 24.7902 110.638 27.2046C109.485 29.4136 109.174 31.7675 109.297 37.326C109.394 41.6938 109.501 42.5852 110.103 44.0411C110.878 45.9149 112.578 48.0204 113.963 48.8215C117.637 50.9479 123.789 50.6531 127.277 48.1833C129.565 46.5639 129.572 46.3625 127.437 43.9746L125.576 41.8939L124.642 42.6316C122.36 44.4362 120.83 44.7938 118.537 44.0588C115.724 43.1563 114.728 41.1515 114.725 36.3835C114.723 32.6516 115.167 31.0215 116.566 29.6264C118.511 27.6885 121.535 27.5736 124.111 29.34L125.554 30.3302L127.492 28.3637L129.43 26.3975L128.601 25.4429C126.364 22.8667 121.315 21.5156 117.24 22.403ZM205.744 22.5803C203.545 23.2327 201.96 24.2581 200.9 25.7136C198.785 28.6178 198.306 30.9342 198.462 37.4938C198.602 43.3575 199.115 45.0174 201.521 47.405C205.237 51.0909 212.345 51.2336 216.742 47.7108C217.537 47.0739 218.188 46.4356 218.188 46.2926C218.188 46.1496 217.459 45.2384 216.568 44.268L214.949 42.5033L213.19 43.524C209.99 45.3811 206.172 44.7999 204.625 42.2203C204.226 41.5538 203.81 40.5197 203.702 39.9227L203.505 38.8369H211.349H219.192L219.01 35.5632C218.785 31.5271 217.925 28.3583 216.465 26.1806C215.093 24.1345 213.828 23.1944 211.578 22.5477C209.45 21.936 207.886 21.9447 205.744 22.5803ZM0.00365141 32.2057C0.00760739 43.0455 0.196582 44.6236 1.7808 47.043C2.94295 48.8185 5.04509 50.0074 7.34687 50.1911C9.97181 50.4006 11.7523 49.7381 13.3058 47.9744L14.6067 46.4974V48.2071V49.9168H17.501H20.3952L20.3158 36.2348L20.2364 22.5528L17.4215 22.4561L14.6067 22.3597L14.6049 31.1857C14.604 36.2391 14.4685 40.5475 14.2881 41.2647C13.8164 43.1385 12.2139 44.3553 10.2323 44.3439C8.14384 44.3321 6.90349 43.5539 6.11716 41.7619C5.51616 40.3917 5.47751 39.7629 5.47751 31.3442V22.3849H2.73876H0L0.00365141 32.2057ZM232.186 25.59V27.7875L230.132 27.6885L228.078 27.5891L227.987 25.4906L227.896 23.3921H230.041H232.186V25.59ZM241.619 23.7279C241.619 23.9126 241.482 24.0637 241.315 24.0637C241.147 24.0637 241.011 23.9126 241.011 23.7279C241.011 23.5432 241.147 23.3921 241.315 23.3921C241.482 23.3921 241.619 23.5432 241.619 23.7279ZM228.534 25.4067V26.7497H230.056H231.577V25.4067V24.0637H230.056H228.534V25.4067ZM239.816 24.4917C239.778 24.8933 239.361 24.8154 239.23 24.3826C239.163 24.161 239.273 24.0402 239.474 24.114C239.675 24.1879 239.829 24.3578 239.816 24.4917ZM233.707 25.4067C233.707 25.5913 233.57 25.7424 233.403 25.7424C233.236 25.7424 233.099 25.5913 233.099 25.4067C233.099 25.222 233.236 25.0709 233.403 25.0709C233.57 25.0709 233.707 25.222 233.707 25.4067ZM235.381 25.4067C235.484 25.5913 235.355 25.7424 235.095 25.7424C234.834 25.7424 234.62 25.5913 234.62 25.4067C234.62 25.222 234.749 25.0709 234.906 25.0709C235.064 25.0709 235.277 25.222 235.381 25.4067ZM241.619 26.2262C241.619 26.8618 241.482 27.4749 241.315 27.5891C241.147 27.7032 241.011 27.5609 241.011 27.2731C241.011 26.9854 240.805 26.7497 240.554 26.7497C239.964 26.7497 239.979 26.5576 240.63 25.7703C241.406 24.8322 241.619 24.9302 241.619 26.2262ZM234.62 27.0854C234.62 27.2701 234.406 27.4212 234.146 27.4212C233.885 27.4212 233.756 27.2701 233.859 27.0854C233.963 26.9008 234.176 26.7497 234.334 26.7497C234.491 26.7497 234.62 26.9008 234.62 27.0854ZM244.054 27.0854C244.054 27.2701 243.848 27.4212 243.597 27.4212C243.346 27.4212 243.141 27.2701 243.141 27.0854C243.141 26.9008 243.346 26.7497 243.597 26.7497C243.848 26.7497 244.054 26.9008 244.054 27.0854ZM211.79 28.9244C212.904 30.1015 213.623 31.739 213.623 33.0958V34.1363H208.602C203.919 34.1363 203.581 34.0943 203.581 33.5148C203.581 32.2648 204.296 30.581 205.342 29.3682C206.558 27.9591 207.039 27.7801 209.293 27.8976C210.577 27.9644 211.076 28.1699 211.79 28.9244ZM96.1936 29.7282C97.1796 30.954 97.3616 31.4429 97.5484 33.3694C97.8536 36.5134 97.5085 40.7107 96.8415 41.9708C95.5905 44.3338 92.1108 45.137 90.0698 43.5337C88.4454 42.2575 87.9588 40.5791 87.9512 36.224C87.9439 32.1453 88.2637 30.7539 89.5086 29.4498C90.5923 28.315 91.2718 28.0887 93.2495 28.2055C94.939 28.3056 95.128 28.4033 96.1936 29.7282Z" fill="#135020"/>
</svg>
