<svg width="247" height="51" viewBox="0 0 247 51" fill="none" xmlns="http://www.w3.org/2000/svg">
<path fill-rule="evenodd" clip-rule="evenodd" d="M235.427 0.316671C232.08 1.78227 230.399 4.55265 230.399 8.60379V10.3836H231.933H233.467V8.65728C233.467 6.29079 234.186 4.78727 235.823 3.72861C237.922 2.37068 240.147 3.0339 241.456 5.40818C241.999 6.39303 242.19 6.4902 243.585 6.4902C245.237 6.4902 245.213 6.54335 244.501 4.43991C244.091 3.22755 242.638 1.57643 241.338 0.844137C239.833 -0.00258522 236.779 -0.275121 235.427 0.316671ZM238.376 1.46945C235.967 1.73521 235.245 2.00097 234.21 3.00479C233.01 4.16738 232.069 5.97729 231.654 7.92363L231.381 9.19862L231.35 8.01132C231.248 4.06818 233.99 1.19962 237.762 1.30423C238.85 1.33436 239.068 1.39293 238.376 1.46945ZM242.739 7.52515C242.259 7.89621 242.057 8.39693 242.057 9.21792V10.3836H243.591H245.125V9.0412C245.125 8.06075 244.965 7.60438 244.532 7.34843C243.745 6.8836 243.544 6.90323 242.739 7.52515ZM228.865 14.4313V17.4634L231.09 17.5629C233.502 17.6709 234.027 18.2688 231.867 18.4476C231.15 18.5068 230.447 18.7353 230.304 18.9554C230.108 19.2598 230.009 19.254 229.89 18.932C229.608 18.1649 228.865 18.4713 228.865 19.3552C228.865 20.1623 228.95 20.2016 230.673 20.2016C232.03 20.2016 232.527 20.0696 232.665 19.6725C232.904 18.9859 233.467 19.3718 233.467 20.2216C233.467 20.8137 233.239 20.8787 231.166 20.8787C229.326 20.8787 228.865 20.9803 228.865 21.3866C228.865 21.804 229.411 21.8944 231.933 21.8944C234.456 21.8944 235.001 21.804 235.001 21.3866C235.001 21.0707 235.291 20.8787 235.768 20.8787C236.66 20.8787 236.768 21.4549 235.998 22.1002C235.631 22.4076 234.418 22.5532 232.163 22.5607L228.865 22.5715V25.6185V28.6655H233.467H238.069V27.8191C238.069 27.2923 238.243 26.9727 238.529 26.9727C238.816 26.9727 238.99 27.2923 238.99 27.8191C238.99 28.2846 239.136 28.6655 239.315 28.6655C239.503 28.6655 239.6 28.1309 239.545 27.3959C239.468 26.3762 239.314 26.105 238.759 26.018C238.26 25.9398 238.069 25.6828 238.069 25.0869C238.069 24.4352 237.91 24.2643 237.302 24.2643C236.88 24.2643 236.535 24.1119 236.535 23.9257C236.535 23.7348 237.404 23.5872 238.529 23.5872C239.654 23.5872 240.523 23.7348 240.523 23.9257C240.523 24.1119 240.178 24.2643 239.756 24.2643C239.279 24.2643 238.99 24.4562 238.99 24.7721C238.99 25.088 239.279 25.2799 239.756 25.2799C240.234 25.2799 240.523 25.4719 240.523 25.7877C240.523 26.0671 240.662 26.2956 240.83 26.2956C240.999 26.2956 241.137 26.6003 241.137 26.9727C241.137 27.3451 240.999 27.6498 240.83 27.6498C240.662 27.6498 240.523 27.8783 240.523 28.1576C240.523 28.854 241.025 28.7982 241.279 28.073C241.477 27.512 241.509 27.5127 241.893 28.0886C242.232 28.5961 242.673 28.68 244.556 28.5964L246.813 28.4962V27.3112C246.813 26.2702 246.71 26.1134 245.969 26.0193C245.306 25.935 245.125 25.7353 245.125 25.0883C245.125 24.5815 244.948 24.2643 244.665 24.2643C244.412 24.2643 244.205 24.1119 244.205 23.9257C244.205 23.7395 244.619 23.5872 245.125 23.5872C245.91 23.5872 246.046 23.7158 246.046 24.4616C246.046 25.7204 246.791 25.3063 246.909 23.9819C246.976 23.2357 246.858 22.8542 246.526 22.7384C245.034 22.2194 244.963 22.1287 245.892 21.9242C246.742 21.7373 246.82 21.5981 246.906 20.1153L247 18.5088H245.817C245.167 18.5088 244.463 18.6981 244.253 18.9293C243.968 19.2445 243.817 19.2513 243.653 18.9568C243.532 18.7408 242.961 18.5136 242.385 18.4516C241.028 18.3064 240.728 17.4932 242.032 17.4932H242.978V14.954V12.4149H244.526H246.075L245.984 14.5308C245.873 17.1001 245.315 17.3371 245.186 14.8694C245.101 13.2372 245.032 13.092 244.342 13.092C243.644 13.092 243.591 13.2129 243.591 14.8088C243.591 16.9119 244.054 17.4932 245.729 17.4932H246.99L246.901 14.5308L246.813 11.5685L243.682 11.4723L240.552 11.3759L240.461 13.5914C240.343 16.4545 239.783 16.4626 239.666 13.6029C239.548 10.7492 238.99 10.7302 238.99 13.5798C238.99 15.6762 238.571 16.7568 238.188 15.6525C238.069 15.3129 237.621 15.1233 236.937 15.1233C236.219 15.1233 235.913 14.9848 236 14.7001C236.071 14.4675 236.531 14.2722 237.022 14.2664C237.851 14.2566 237.922 14.1523 238.01 12.8276C238.066 11.9836 237.972 11.3992 237.78 11.3992C237.602 11.3992 237.456 11.8563 237.456 12.4149C237.456 13.092 237.302 13.4305 236.995 13.4305C236.689 13.4305 236.535 13.092 236.535 12.4149C236.535 11.7378 236.382 11.3992 236.075 11.3992C235.768 11.3992 235.615 11.7378 235.615 12.4149C235.615 12.9735 235.477 13.4305 235.308 13.4305C235.139 13.4305 235.001 12.9735 235.001 12.4149V11.3992H231.933H228.865V14.4313ZM55.8358 31.0353V50.3329H67.3524H78.869L78.7803 47.3705L78.6917 44.4082L70.0248 44.3181L61.358 44.2284V27.9829V11.7378H58.5969H55.8358V31.0353ZM135.294 31.0353V50.3329H138.209H141.123V46.7981C141.123 44.786 141.257 43.1721 141.433 43.0523C141.603 42.9362 142.516 41.7712 143.462 40.4634C144.407 39.1555 145.291 38.2133 145.425 38.3691C145.559 38.5252 146.321 40.0239 147.119 41.6998C147.916 43.3756 148.953 45.4323 149.423 46.2702C149.893 47.1082 150.521 48.3652 150.819 49.0633L151.361 50.3329H154.558C157.116 50.3329 157.724 50.2415 157.597 49.8758C157.509 49.6246 156.096 46.8441 154.456 43.6972C151.481 37.9868 150.831 36.7284 149.629 34.3403L148.991 33.0751L150.028 31.6319C150.598 30.8383 152.244 28.616 153.687 26.6934C155.129 24.7711 156.356 23.057 156.412 22.8847C156.47 22.7062 155.197 22.5715 153.448 22.5715H150.382L145.829 29.0633L141.277 35.555L141.196 23.6464L141.115 11.7378H138.205H135.294V31.0353ZM162.292 31.0353V50.3329H164.9H167.507V37.2309C167.507 30.0248 167.622 24.2734 167.763 24.4505C167.903 24.6272 168.331 25.6862 168.712 26.8034C169.094 27.9206 170.028 30.6629 170.787 32.8974C171.547 35.1318 172.62 38.255 173.173 39.8377C173.726 41.4205 174.387 43.3248 174.642 44.0696L175.107 45.4239L177.413 45.522L179.719 45.6206L180.2 44.1678C183.593 33.9168 185.237 29.0304 186.097 26.6341L187.13 23.7564L187.136 37.0447L187.142 50.3329H189.903H192.664V31.0242V11.7154L189.232 11.8112L185.8 11.9071L184.498 15.9697C182.948 20.8066 180.88 27.1579 180.089 29.5118C179.776 30.4429 179.075 32.5449 178.529 34.1835C177.985 35.8218 177.442 37.0406 177.323 36.892C177.205 36.743 176.383 34.4124 175.497 31.7124C174.61 29.0125 173.159 24.5943 172.272 21.8944C171.384 19.1944 170.276 15.8048 169.809 14.3616L168.959 11.7378H165.626H162.292V31.0353ZM234.081 14.6155V16.8161H231.933H229.786V14.6155V12.4149H231.933H234.081V14.6155ZM241.995 14.5308C241.945 15.6948 241.766 16.6468 241.597 16.6468C241.428 16.6468 241.249 15.6948 241.199 14.5308C241.124 12.7775 241.192 12.4149 241.597 12.4149C242.003 12.4149 242.071 12.7775 241.995 14.5308ZM230.399 14.4462V15.8004H231.933H233.467V14.4462V13.092H231.933H230.399V14.4462ZM235.615 16.4775C235.615 16.6637 235.477 16.8161 235.308 16.8161C235.139 16.8161 235.001 16.6637 235.001 16.4775C235.001 16.2913 235.139 16.139 235.308 16.139C235.477 16.139 235.615 16.2913 235.615 16.4775ZM238.069 17.1651C238.069 17.765 238.26 18.2725 238.529 18.3863C239.255 18.6937 239.066 19.186 238.223 19.186C237.656 19.186 237.456 19.0062 237.456 18.4984C237.456 18.1199 237.248 17.7227 236.995 17.6157C236.742 17.5084 236.535 17.1323 236.535 16.7799C236.535 16.3218 236.754 16.139 237.302 16.139C237.952 16.139 238.069 16.2964 238.069 17.1651ZM239.603 17.1546C239.603 17.3408 239.465 17.4932 239.296 17.4932C239.128 17.4932 238.99 17.3408 238.99 17.1546C238.99 16.9684 239.128 16.8161 239.296 16.8161C239.465 16.8161 239.603 16.9684 239.603 17.1546ZM235.615 18.001C235.615 18.2803 235.486 18.5088 235.33 18.5088C235.172 18.5088 235 18.8396 234.946 19.2442C234.759 20.6414 234.081 20.3523 234.081 18.8755C234.081 17.6266 234.155 17.4932 234.848 17.4932C235.325 17.4932 235.615 17.6851 235.615 18.001ZM237.195 19.6938C237.195 19.8708 237.046 20.0699 236.865 20.1366C236.684 20.2033 236.535 20.0042 236.535 19.6938C236.535 19.3833 236.684 19.1843 236.865 19.251C237.046 19.3177 237.195 19.5167 237.195 19.6938ZM243.591 19.6938C243.591 20.0604 243.251 20.2016 242.364 20.2016C241.689 20.2016 241.137 20.354 241.137 20.5402C241.137 20.7264 240.669 20.8787 240.096 20.8787C239.435 20.8787 238.988 21.072 238.871 21.4079C238.77 21.699 238.548 21.8426 238.378 21.7265C237.913 21.4092 238.007 20.8787 238.529 20.8787C238.782 20.8787 238.99 20.7264 238.99 20.5402C238.99 20.354 239.458 20.2016 240.03 20.2016C240.673 20.2016 241.139 20.0073 241.248 19.6938C241.359 19.3752 241.828 19.186 242.508 19.186C243.266 19.186 243.591 19.3383 243.591 19.6938ZM246.046 20.5402C246.046 20.7264 245.839 20.8787 245.586 20.8787C245.332 20.8787 245.125 20.7264 245.125 20.5402C245.125 20.354 245.332 20.2016 245.586 20.2016C245.839 20.2016 246.046 20.354 246.046 20.5402ZM243.591 21.3866C243.591 21.6659 243.729 21.8944 243.898 21.8944C244.067 21.8944 244.205 22.0467 244.205 22.2329C244.205 22.4191 243.929 22.5715 243.591 22.5715C243.141 22.5715 242.978 22.3457 242.978 21.7251C242.978 21.2596 243.116 20.8787 243.285 20.8787C243.453 20.8787 243.591 21.1072 243.591 21.3866ZM242.002 22.8254C242.068 23.3376 241.942 23.5872 241.619 23.5872C241.354 23.5872 241.137 23.3586 241.137 23.0793C241.137 22.8 240.999 22.5715 240.83 22.5715C240.662 22.5715 240.523 22.4086 240.523 22.2092C240.523 21.4776 241.902 22.0521 242.002 22.8254ZM37.3894 22.7421C36.5519 23.0387 35.4588 23.8089 34.7228 24.6214L33.4754 25.998L33.3809 24.3692L33.2867 22.7408L30.4489 22.6433L27.6111 22.5461V36.4393V50.3329H30.5256H33.4401V40.8209C33.4401 31.7314 33.4683 31.2652 34.0779 30.3206C35.345 28.357 37.9165 27.7473 40.1027 28.8923C42.2659 30.0251 42.3346 30.3951 42.3358 40.938L42.337 50.3329H45.2746H48.2124L48.1124 39.7531C48.0191 29.8592 47.9709 29.0744 47.3708 27.6498C46.4716 25.5152 45.3028 24.0953 43.7701 23.2767C42.0112 22.3369 39.1992 22.1012 37.3894 22.7421ZM90.3141 22.6886C86.8759 23.6579 84.5348 26.0197 83.5791 29.4827C83.3178 30.4297 83.0239 32.8872 82.9263 34.9436C82.5419 43.0266 84.2587 47.571 88.5089 49.7215C89.8242 50.3867 90.5463 50.4978 93.571 50.4998C96.7481 50.5018 97.2715 50.4131 98.8309 49.606C100.039 48.981 100.943 48.1787 101.821 46.9531C103.751 44.2589 104.071 42.5661 103.95 35.6776C103.859 30.4649 103.776 29.6886 103.163 28.3164C102.12 25.9794 100.302 24.0933 98.2946 23.2645C96.1045 22.3602 92.4211 22.0945 90.3141 22.6886ZM118.197 22.5898C115.233 23.2354 112.811 24.9969 111.541 27.4314C110.379 29.6588 110.065 32.0324 110.189 37.6371C110.287 42.0414 110.394 42.9402 111.002 44.4082C111.783 46.2977 113.497 48.4207 114.893 49.2285C118.597 51.3726 124.799 51.0753 128.316 48.5849C130.622 46.9521 130.63 46.749 128.477 44.3412L126.601 42.2432L125.66 42.9869C123.359 44.8067 121.816 45.1672 119.505 44.4261C116.669 43.5161 115.665 41.4946 115.662 36.6868C115.659 32.9238 116.107 31.2801 117.518 29.8734C119.478 27.9193 122.527 27.8035 125.124 29.5846L126.579 30.583L128.532 28.6001L130.486 26.6175L129.651 25.655C127.395 23.0573 122.305 21.695 118.197 22.5898ZM207.423 22.7685C205.207 23.4263 203.608 24.4603 202.54 25.9279C200.408 28.8564 199.924 31.1921 200.082 37.8064C200.223 43.7189 200.74 45.3927 203.166 47.8002C206.912 51.5168 214.079 51.6607 218.511 48.1086C219.313 47.4663 219.969 46.8228 219.969 46.6785C219.969 46.5343 219.234 45.6155 218.336 44.6371L216.703 42.8576L214.93 43.8868C211.704 45.7594 207.855 45.1733 206.295 42.5722C205.893 41.9002 205.473 40.8574 205.364 40.2555L205.166 39.1606H213.074H220.982L220.797 35.8597C220.571 31.79 219.704 28.5947 218.232 26.3988C216.848 24.3357 215.573 23.3877 213.305 22.7357C211.159 22.1188 209.582 22.1276 207.423 22.7685ZM0.00368121 32.4742C0.00766949 43.4044 0.198186 44.9956 1.79534 47.4352C2.96697 49.2255 5.08627 50.4243 7.40683 50.6095C10.0532 50.8207 11.8482 50.1528 13.4144 48.3744L14.7259 46.8851V48.609V50.3329H17.6438H20.5617L20.4816 36.5368L20.4015 22.7408L17.5637 22.6433L14.7259 22.5461L14.7241 31.4457C14.7232 36.5412 14.5866 40.8856 14.4047 41.6087C13.9292 43.4982 12.3136 44.7251 10.3158 44.7136C8.21032 44.7017 6.95984 43.917 6.1671 42.1101C5.56119 40.7285 5.52222 40.0943 5.52222 31.6055V22.5715H2.76111H0L0.00368121 32.4742ZM234.081 25.8033V28.0192L232.01 27.9193L229.939 27.8191L229.848 25.7031L229.757 23.5872H231.919H234.081V25.8033ZM243.591 23.9257C243.591 24.1119 243.453 24.2643 243.285 24.2643C243.116 24.2643 242.978 24.1119 242.978 23.9257C242.978 23.7395 243.116 23.5872 243.285 23.5872C243.453 23.5872 243.591 23.7395 243.591 23.9257ZM230.399 25.6185V26.9727H231.933H233.467V25.6185V24.2643H231.933H230.399V25.6185ZM241.774 24.6959C241.736 25.1008 241.315 25.0223 241.183 24.5859C241.116 24.3624 241.226 24.2406 241.428 24.315C241.631 24.3895 241.786 24.5608 241.774 24.6959ZM235.615 25.6185C235.615 25.8047 235.477 25.957 235.308 25.957C235.139 25.957 235.001 25.8047 235.001 25.6185C235.001 25.4323 235.139 25.2799 235.308 25.2799C235.477 25.2799 235.615 25.4323 235.615 25.6185ZM237.302 25.6185C237.406 25.8047 237.276 25.957 237.013 25.957C236.751 25.957 236.535 25.8047 236.535 25.6185C236.535 25.4323 236.665 25.2799 236.824 25.2799C236.983 25.2799 237.198 25.4323 237.302 25.6185ZM243.591 26.4449C243.591 27.0858 243.453 27.704 243.285 27.8191C243.116 27.9342 242.978 27.7906 242.978 27.5005C242.978 27.2104 242.771 26.9727 242.518 26.9727C241.922 26.9727 241.937 26.779 242.594 25.9851C243.377 25.0392 243.591 25.1381 243.591 26.4449ZM236.535 27.3112C236.535 27.4974 236.32 27.6498 236.057 27.6498C235.794 27.6498 235.664 27.4974 235.768 27.3112C235.873 27.125 236.088 26.9727 236.247 26.9727C236.405 26.9727 236.535 27.125 236.535 27.3112ZM246.046 27.3112C246.046 27.4974 245.839 27.6498 245.586 27.6498C245.332 27.6498 245.125 27.4974 245.125 27.3112C245.125 27.125 245.332 26.9727 245.586 26.9727C245.839 26.9727 246.046 27.125 246.046 27.3112ZM213.519 29.1655C214.641 30.3525 215.367 32.0036 215.367 33.3717V34.4209H210.305C205.583 34.4209 205.243 34.3785 205.243 33.7942C205.243 32.5338 205.964 30.8359 207.018 29.6131C208.244 28.1922 208.729 28.0117 211.002 28.1302C212.296 28.1976 212.799 28.4048 213.519 29.1655ZM96.9788 29.976C97.9728 31.2121 98.1563 31.705 98.3446 33.6476C98.6524 36.8178 98.3045 41.0501 97.632 42.3207C96.3708 44.7034 92.8626 45.5132 90.805 43.8966C89.1673 42.6098 88.6768 40.9174 88.6691 36.526C88.6617 32.4132 88.9842 31.0103 90.2393 29.6953C91.3317 28.551 92.0168 28.3228 94.0106 28.4407C95.7139 28.5415 95.9044 28.6401 96.9788 29.976Z" fill="#F4F841"/>
</svg>
