<svg width="19" height="19" viewBox="0 0 19 19" fill="none" xmlns="http://www.w3.org/2000/svg">
<path d="M15.4626 10.6568C16.1701 10.7843 16.8074 11.052 17.3683 11.4854C18.6941 12.5116 19.2868 14.2643 18.8534 15.8896C18.42 17.5022 17.0496 18.7323 15.3989 18.9426C14.8762 19.0064 14.3408 18.9936 13.8118 18.9936C9.75813 18.9936 5.70446 18.9936 1.65079 19C0.732975 19 0.152968 18.3945 0.031868 17.7699C0.00637321 17.6296 0 17.4831 0 17.3365C0 12.11 0 6.88359 0 1.65716C0 0.63737 0.63737 0 1.65079 0C5.70446 0 9.75813 0 13.8118 0C14.8252 0 15.4626 0.643744 15.4626 1.65716C15.4626 4.56357 15.4626 7.46997 15.4626 10.3764V10.6504V10.6568ZM14.1369 10.6504V10.4337C14.1369 7.52734 14.1369 4.62093 14.1369 1.71452C14.1369 1.37035 14.0986 1.3321 13.7608 1.3321C9.74538 1.3321 5.72358 1.3321 1.70815 1.3321C1.3576 1.3321 1.32573 1.36397 1.32573 1.70815C1.32573 6.90909 1.32573 12.1037 1.32573 17.3046C1.32573 17.6488 1.3576 17.6806 1.70815 17.6806C4.95874 17.6806 8.20932 17.6806 11.4599 17.6806C11.53 17.6806 11.6065 17.6806 11.7149 17.6806C10.6441 16.3995 10.2999 14.9846 10.8353 13.4421C11.3707 11.8933 12.5179 10.9946 14.1305 10.6568L14.1369 10.6504ZM11.9316 14.7934C11.9316 16.3995 13.1999 17.6743 14.8061 17.6743C16.3931 17.6743 17.6615 16.3931 17.6679 14.7997C17.6679 13.1107 16.2147 11.8933 14.7296 11.9379C13.2063 11.9762 11.9379 13.2445 11.9316 14.7997V14.7934Z" fill="#9D9C9C"/>
<path d="M7.71179 8.39416C6.40518 8.39416 5.10494 8.39416 3.79833 8.39416C3.30756 8.39416 2.99525 7.99899 3.11635 7.55921C3.18009 7.32338 3.33943 7.16404 3.57526 7.1003C3.65174 7.08118 3.74097 7.06843 3.81746 7.06843C6.41792 7.06843 9.02477 7.06843 11.6252 7.06843C12.0077 7.06843 12.2881 7.27239 12.3518 7.59107C12.4347 8.00536 12.1479 8.36866 11.7272 8.39416C11.6571 8.39416 11.587 8.39416 11.5233 8.39416C10.2549 8.39416 8.98015 8.39416 7.71179 8.39416Z" fill="#9D9C9C"/>
<path d="M7.71848 4.86313C6.41187 4.86313 5.11164 4.86313 3.80503 4.86313C3.32063 4.86313 3.00194 4.46796 3.11667 4.02818C3.19316 3.73499 3.4481 3.53741 3.77954 3.53741C4.55075 3.53741 5.32834 3.53741 6.09956 3.53741C7.94793 3.53741 9.80268 3.53741 11.6511 3.53741C12.059 3.53741 12.3522 3.79235 12.3649 4.15565C12.384 4.56357 12.0908 4.86313 11.6511 4.86313C10.3381 4.86313 9.02509 4.86313 7.71848 4.86313Z" fill="#9D9C9C"/>
<path d="M6.64125 10.6122C7.59093 10.6122 8.54698 10.6122 9.49666 10.6122C9.78985 10.6122 9.99381 10.7588 10.1085 11.0265C10.2169 11.2814 10.1787 11.5364 9.97469 11.7085C9.84084 11.8232 9.63688 11.9252 9.46479 11.9252C7.57181 11.9379 5.68519 11.9379 3.7922 11.9316C3.39066 11.9316 3.0911 11.6384 3.08472 11.2687C3.08472 10.8863 3.37791 10.6058 3.79858 10.6058C4.74189 10.6058 5.69157 10.6058 6.63487 10.6058L6.64125 10.6122Z" fill="#9D9C9C"/>
<path d="M6.18873 14.1432C6.99819 14.1432 7.80127 14.1432 8.61073 14.1432C8.96766 14.1432 9.24173 14.4046 9.27997 14.7551C9.31184 15.0738 9.08239 15.3797 8.75733 15.4562C8.69359 15.469 8.62348 15.469 8.55337 15.469C6.97907 15.469 5.41114 15.469 3.83683 15.469C3.40342 15.469 3.09749 15.1949 3.09749 14.8061C3.09749 14.4173 3.39705 14.1432 3.83683 14.1432C4.6208 14.1432 5.41114 14.1432 6.1951 14.1432H6.18873Z" fill="#9D9C9C"/>
<path d="M15.4626 13.7098C15.2969 14.3281 15.5837 14.7488 16.0426 15.1121C16.2147 15.2459 16.3358 15.418 16.3422 15.6538C16.3422 15.9343 16.2274 16.1446 15.9789 16.2784C15.743 16.3995 15.4435 16.3677 15.2459 16.1828C14.9272 15.8769 14.6085 15.571 14.3153 15.2395C14.2133 15.1248 14.1496 14.9463 14.1432 14.7934C14.1241 14.2134 14.1305 13.6334 14.1369 13.0533C14.1369 12.6646 14.4237 12.3714 14.7933 12.3714C15.1566 12.3714 15.4498 12.6646 15.4562 13.047C15.4562 13.2701 15.4562 13.4868 15.4562 13.7098H15.4626Z" fill="#9D9C9C"/>
</svg>
