<svg width="13" height="17" viewBox="0 0 13 17" fill="none" xmlns="http://www.w3.org/2000/svg">
<path d="M6.50687 9.30741C3.93646 9.30741 1.86354 7.22758 1.86354 4.65026C1.86354 2.0522 3.94337 -0.00689238 6.56215 1.73392e-05C9.09802 1.73392e-05 11.1709 2.10748 11.164 4.65717C11.1502 7.23449 9.07729 9.3074 6.50687 9.30049V9.30741Z" fill="#9D9C9C"/>
<path d="M11.3851 10.7515C11.3851 10.7515 11.3298 10.7101 11.3091 10.6824C11.3091 10.6824 11.316 10.6755 11.3229 10.6686C10.8254 10.2057 10.2588 9.87401 9.63695 9.63217C9.56095 9.60453 9.49876 9.59762 9.43657 9.61144C9.3813 9.61144 9.32602 9.62526 9.28456 9.64599C8.35866 10.1435 7.42585 10.3853 6.49994 10.3922C5.57404 10.3922 4.64123 10.1435 3.71533 9.64599C3.67387 9.62526 3.61859 9.61144 3.56331 9.61144C3.50113 9.60453 3.43203 9.61144 3.36293 9.63217C2.74106 9.87401 2.18137 10.2057 1.67696 10.6686C1.67696 10.6686 1.68387 10.6755 1.69078 10.6824C1.66314 10.7032 1.6355 10.7239 1.61477 10.7515C0.295019 12.0229 -0.112654 13.6053 0.0255403 15.3811C0.0669986 15.8924 0.440123 16.2931 0.951442 16.3899C1.41439 16.4728 1.87734 16.5488 2.3403 16.6179C3.45967 16.7837 4.57904 16.8736 5.70533 16.9081C5.70533 16.9081 5.70533 16.9081 5.70533 16.915C5.76751 16.915 5.85043 16.915 5.92644 16.915C6.11991 16.915 6.30647 16.915 6.49994 16.915C6.69342 16.915 6.87998 16.915 7.07345 16.915C7.15637 16.915 7.23237 16.915 7.29456 16.915C7.29456 16.915 7.29456 16.915 7.29456 16.9081C8.42084 16.8805 9.54713 16.7906 10.6596 16.6179C11.1225 16.5488 11.5855 16.4728 12.0484 16.3899C12.5529 16.3 12.9329 15.8924 12.9743 15.3811C13.1125 13.6122 12.7049 12.0229 11.3851 10.7515Z" fill="#9D9C9C"/>
</svg>
