<svg width="17" height="22" viewBox="0 0 17 22" fill="none" xmlns="http://www.w3.org/2000/svg">
<path d="M0.00889957 8.59597C0.00889957 4.84934 2.26044 1.60997 5.7134 0.461952C10.6614 -1.18443 15.9833 1.69007 16.8732 7.17208C17.3093 9.85969 16.6151 12.2892 14.8886 14.3984C13.0198 16.6855 11.142 18.9637 9.26424 21.242C8.76588 21.8471 8.23192 21.8471 7.73355 21.242C5.78459 18.8658 3.81783 16.5075 1.88667 14.1136C0.631854 12.5562 0 10.6072 0 8.60488L0.00889957 8.59597ZM8.5078 5.00953C6.65673 5.00953 5.16163 6.50462 5.16163 8.35569C5.16163 10.189 6.66563 11.6752 8.4989 11.6752C10.3233 11.6752 11.8362 10.1712 11.8273 8.33789C11.8273 6.49572 10.3322 5.00063 8.4989 5.00063L8.5078 5.00953Z" fill="#9D9C9C"/>
</svg>
