<svg width="17" height="22" viewBox="0 0 17 22" fill="none" xmlns="http://www.w3.org/2000/svg">
<path d="M0.00889951 8.59591C0.00889951 4.8493 2.26042 1.60996 5.71335 0.461949C10.6614 -1.18442 15.9831 1.69005 16.8731 7.17202C17.3091 9.85961 16.615 12.2891 14.8885 14.3983C13.0197 16.6854 11.1419 18.9636 9.26417 21.2418C8.76581 21.847 8.23185 21.847 7.73349 21.2418C5.78455 18.8657 3.8178 16.5074 1.88665 14.1135C0.63185 12.5561 0 10.6072 0 8.60481L0.00889951 8.59591ZM8.50774 5.00949C6.65668 5.00949 5.1616 6.50457 5.1616 8.35563C5.1616 10.1889 6.66558 11.6751 8.49883 11.6751C10.3232 11.6751 11.8361 10.1711 11.8272 8.33783C11.8272 6.49567 10.3321 5.00059 8.49883 5.00059L8.50774 5.00949Z" fill="#F0F276"/>
</svg>
