<svg width="278" height="199" viewBox="0 0 278 199" fill="none" xmlns="http://www.w3.org/2000/svg">
<path fill-rule="evenodd" clip-rule="evenodd" d="M118.171 0.400947C116.506 0.759983 115.904 1.49584 115.663 3.46419C115.509 4.7242 115.634 5.19416 116.446 6.39871L117.412 7.83273H146.65H175.889V9.20875C175.889 9.9988 175.719 10.6072 175.49 10.6377C175.27 10.6669 174.085 10.7147 172.856 10.7435L170.621 10.7965L170.529 14.4838L170.437 18.1711L173.083 18.2943L175.729 18.4175L175.82 22.7014L175.91 26.9857L174.902 27.2528C174.347 27.4002 173.049 27.5204 172.018 27.5204H170.142V23.7391V19.9574L145.319 20.1022C131.667 20.1818 114.636 20.2639 107.473 20.2847L94.4483 20.3228L93.6648 21.3622C92.6499 22.7077 92.6448 24.5685 93.6514 26.1207L94.4221 27.3087L132.362 27.5204L170.302 27.7321L170.461 32.1908C170.611 36.365 170.69 36.7922 171.703 38.8825C172.761 41.0668 172.78 41.1862 172.579 44.3824C172.343 48.1429 172.697 49.2264 174.484 50.2167C175.986 51.0491 181.681 51.016 182.919 50.1676C184.824 48.8606 185.065 46.3321 183.441 44.6893C182.854 44.0953 182.171 43.6063 181.925 43.6029C181.559 43.5974 181.565 43.5199 181.955 43.1859C182.241 42.9403 187.143 42.7726 194.166 42.7688L205.899 42.7625L205.955 26.3561C205.992 15.5791 206.075 11.9837 206.198 15.8772C206.348 20.6433 206.504 22.0663 206.991 23.1408C207.696 24.6926 209.609 26.2502 210.811 26.2502H211.646V34.5063V42.7625H215.317H218.989V38.7614V34.7604L220.824 34.6334L222.66 34.5063L222.744 17.2532L222.827 0H219.95H217.073V9.3146V18.6292H214.359H211.646V9.3146V0L165.592 0.0529238C140.263 0.0821378 118.923 0.238789 118.171 0.400947ZM227.591 0.317543C227.581 0.492403 227.545 8.8277 227.511 18.8409L227.449 37.0467L224.975 37.1703L222.501 37.294L222.532 41.8276C222.55 44.321 222.661 46.8202 222.779 47.3817C223.081 48.8123 224.48 50.0698 226.086 50.3539L227.449 50.5952L227.536 58.9199L227.622 67.2446L230.249 67.5342L232.877 67.8238V71.6995V75.5752L235.51 75.698L238.144 75.8212V79.8261V83.8314H235.431H232.717V79.8092V75.7869H230.163H227.609V82.5083C227.609 86.2049 227.519 89.8249 227.409 90.5527L227.21 91.8758H232.677H238.144V88.0653V84.2548H241.656H245.168V88.0653V91.8758H250.755H256.342V79.8261V67.7768L253.708 67.6536L251.074 67.5308L250.983 63.4028L250.892 59.2747H253.629H256.367L256.275 55.57L256.182 51.8654L247.163 51.7527L238.144 51.6405V55.4574V59.2747H235.431H232.717V55.302C232.717 50.7176 232.636 50.823 236.149 50.8128L238.144 50.8069V46.7847V42.7625H247.243H256.342V21.3812V0H241.975C234.074 0 227.6 0.142683 227.591 0.317543ZM67.8693 1.71685C66.2816 3.37315 67.0223 6.77425 68.9704 6.77425C71.6717 6.77425 72.0098 2.15803 69.3858 1.10124C68.9506 0.925961 68.4216 1.14061 67.8693 1.71685ZM101.876 1.82651C100.39 3.92441 101.612 7.19764 103.881 7.19764C105.34 7.19764 106.29 5.97362 106.29 4.09589C106.29 1.1656 103.397 -0.321355 101.876 1.82651ZM15.1595 2.21137C14.4814 3.49466 14.5353 4.91218 15.3009 5.92747C16.5534 7.58843 18.4935 6.45586 18.4935 4.0637C18.4935 1.49668 16.2076 0.226511 15.1595 2.21137ZM31.761 2.21137C31.4877 2.72875 31.2639 3.58612 31.2639 4.11662C31.2639 5.2818 32.3152 6.77425 33.1363 6.77425C34.0775 6.77425 35.4143 5.14123 35.4143 3.99131C35.4143 1.58602 32.7711 0.298064 31.761 2.21137ZM56.8174 2.30832C55.972 3.65894 57.2194 5.78225 58.2145 4.68694C58.8668 3.96887 58.8671 2.2825 58.2152 1.95056C57.4687 1.57078 57.2427 1.62878 56.8174 2.30832ZM89.8708 2.35872C89.1962 3.25376 89.2386 4.11155 89.9847 4.64079C91.2819 5.56166 92.5915 3.38839 91.4223 2.25497C90.6804 1.53521 90.4818 1.54877 89.8708 2.35872ZM4.47415 2.70717C4.18905 3.16273 4.22162 3.45233 4.6175 3.97734C4.89941 4.35119 5.18163 4.6573 5.24421 4.6573C5.30678 4.6573 5.58901 4.35119 5.87091 3.97734C6.2668 3.45233 6.29936 3.16273 6.01426 2.70717C5.81121 2.38242 5.4645 2.11695 5.24421 2.11695C5.02392 2.11695 4.6772 2.38242 4.47415 2.70717ZM46.4967 2.37988C46.1168 2.88329 46.2413 4.09969 46.7276 4.63485C47.4105 5.38637 48.5722 4.45069 48.4436 3.25249C48.344 2.32569 46.9938 1.72024 46.4967 2.37988ZM79.2327 2.39723C78.6638 2.70165 78.7385 4.21189 79.3374 4.51673C79.6142 4.65772 80.065 4.47608 80.3386 4.11281C81.2214 2.94214 80.4503 1.74563 79.2327 2.39723ZM23.1228 3.38713C23.2313 3.61999 23.4551 3.81052 23.6205 3.81052C23.7859 3.81052 23.9209 3.61999 23.9209 3.38713C23.9209 3.15426 23.6968 2.96374 23.4232 2.96374C23.1496 2.96374 23.0142 3.15426 23.1228 3.38713ZM195.523 7.19638L200.631 7.19764V20.852V34.5063L190.974 34.6185L181.316 34.7303V20.6865V6.64257L185.865 6.91863C188.368 7.0702 192.714 7.19511 195.523 7.19638ZM250.788 7.32296C250.819 7.37038 250.896 13.5062 250.959 20.9578L251.074 34.5063L241.896 34.6185L232.717 34.7312L232.717 20.8584L232.716 6.98595L241.724 7.11127C246.678 7.17986 250.757 7.27512 250.788 7.32296ZM55.1241 11.114C54.2924 11.9515 53.8975 13.7983 54.271 15.1019C55.0146 17.6948 57.1843 18.1808 58.5322 16.0562C59.5691 14.422 59.5832 12.9608 58.575 11.6242C57.7056 10.4709 56.0113 10.2207 55.1241 11.114ZM149.28 11.0496C146.458 12.0755 147.109 17.359 150.058 17.359C151.679 17.359 152.583 16.3556 152.583 14.5553C152.583 13.7382 152.442 12.7208 152.27 12.2948C151.849 11.252 150.393 10.6453 149.28 11.0496ZM158.291 11.0111C157.364 11.73 156.919 13.7936 157.377 15.2582C157.881 16.8747 158.559 17.359 160.313 17.359C162.332 17.359 163.118 16.4707 163.118 14.1904C163.118 12.6954 162.957 12.1712 162.277 11.4625C161.38 10.5259 159.231 10.2829 158.291 11.0111ZM136.19 11.7825C135.9 12.2085 135.662 13.2229 135.662 14.0371C135.662 16.9767 138.275 18.4713 139.757 16.3793C141.228 14.3021 140.103 11.0082 137.923 11.0082C137.162 11.0082 136.524 11.2931 136.19 11.7825ZM124.559 12.0908C123.125 13.4228 124.063 16.0888 125.966 16.0888C127.148 16.0888 127.68 15.4123 127.68 13.9113C127.68 12.7068 126.695 11.4315 125.765 11.4315C125.492 11.4315 124.949 11.7283 124.559 12.0908ZM26.725 12.9464C26.2234 14.4059 26.7205 15.4144 28.0263 15.5867C28.8369 15.6934 29.0885 15.5274 29.3091 14.7399C29.7812 13.0557 29.1718 11.8736 27.8251 11.8613C27.3526 11.8571 26.9692 12.2356 26.725 12.9464ZM86.6542 12.7034C85.8206 13.9253 86.4361 15.6655 87.7023 15.6655C88.7907 15.6655 89.3692 14.98 89.3692 13.6903C89.3692 11.9371 87.6129 11.2986 86.6542 12.7034ZM112.739 12.363C112.528 12.6425 112.356 13.3664 112.356 13.9719C112.356 15.3767 112.898 16.0888 113.967 16.0888C114.874 16.0888 115.868 14.9436 115.868 13.8982C115.868 12.2999 113.619 11.1961 112.739 12.363ZM16.895 12.9168C16.099 14.1887 17.227 15.4821 18.1104 14.3106C18.6435 13.6035 18.5905 13.2238 17.8885 12.7254C17.4399 12.407 17.1829 12.4566 16.895 12.9168ZM37.0591 12.6619C36.4953 13.1238 36.7137 14.5604 37.3732 14.7289C37.6564 14.8009 37.9833 14.5312 38.0996 14.1294C38.3674 13.2034 37.6433 12.1826 37.0591 12.6619ZM44.653 13.1747C44.1594 14.3974 45.0313 15.6832 45.8761 14.9779C46.5868 14.3843 46.7745 13.1183 46.2206 12.653C45.5182 12.0628 45.0368 12.2229 44.653 13.1747ZM67.3205 13.1747C67.0344 13.8826 67.0606 14.2056 67.444 14.7141C68.3581 15.9267 69.759 14.2276 68.9331 12.9079C68.3782 12.0209 67.7435 12.1259 67.3205 13.1747ZM77.4637 12.5425C77.056 13.0832 77.2265 14.7226 77.7162 14.9719C78.5693 15.4059 79.1937 14.7827 79.0903 13.6002C78.9948 12.5099 77.9841 11.8528 77.4637 12.5425ZM96.4057 12.8931C95.8045 13.8538 96.1324 15.0304 97.0011 15.0304C98.008 15.0304 98.5786 13.855 98.0116 12.949C97.4886 12.1132 96.9063 12.0929 96.4057 12.8931ZM106.503 12.5607C106.039 13.1755 106.319 14.8098 106.967 15.2696C107.524 15.665 107.757 15.6015 108.276 14.9127C108.796 14.2242 108.844 13.9152 108.546 13.1768C108.199 12.3173 106.966 11.946 106.503 12.5607ZM186.113 13.0544C185.905 13.1442 185.786 16.0419 185.786 21.0036V28.8117L190.974 28.6953L196.162 28.5789V20.7461V12.9134H191.301C188.628 12.9134 186.293 12.9769 186.113 13.0544ZM237.08 12.9841C236.963 13.1391 236.867 16.7591 236.867 21.0285V28.7906H241.816H246.764V20.7461V12.7017H242.029C239.424 12.7017 237.197 12.8287 237.08 12.9841ZM40.8037 21.1725C39.8938 21.8774 39.4322 23.9571 39.8724 25.367C40.6603 27.8892 43.0232 28.0441 44.2051 25.6515C45.5747 22.8796 42.9913 19.4772 40.8037 21.1725ZM23.691 21.6052C22.3358 22.3212 22.2889 25.6287 23.6199 26.616C24.3229 27.1372 24.5668 27.1389 25.3758 26.627C26.112 26.1613 26.3358 25.7125 26.4095 24.5537C26.5602 22.1814 25.2634 20.7749 23.691 21.6052ZM5.9054 22.2581C5.31189 23.0456 5.24453 25.0228 5.78695 25.7422C6.28883 26.4077 7.79541 26.3946 8.18842 25.721C8.9157 24.4745 8.90005 23.6506 8.12872 22.6277C7.22394 21.4278 6.60904 21.3253 5.9054 22.2581ZM66.1877 23.0435C65.8972 24.0473 66.3081 25.0609 66.9402 24.8996C67.2936 24.8094 67.4999 24.3708 67.4999 23.7099C67.4999 22.5028 66.4923 21.9913 66.1877 23.0435ZM75.4459 23.0452C75.128 24.1439 75.5733 25.0516 76.3581 24.9038C76.8855 24.8043 77.0777 24.486 77.0777 23.7099C77.0777 22.9338 76.8855 22.6154 76.3581 22.5159C75.9261 22.4346 75.5612 22.6463 75.4459 23.0452ZM85.0237 23.0452C84.7058 24.1439 85.1511 25.0516 85.9359 24.9038C86.4633 24.8043 86.6555 24.486 86.6555 23.7099C86.6555 22.9338 86.4633 22.6154 85.9359 22.5159C85.5039 22.4346 85.139 22.6463 85.0237 23.0452ZM56.3194 23.3C56.1955 23.5659 56.2444 23.983 56.428 24.2264C56.857 24.7955 57.8573 24.2992 57.6826 23.6036C57.5051 22.8961 56.6016 22.6946 56.3194 23.3ZM66.6219 30.518C65.7286 31.2081 65.0394 33.356 65.2683 34.7375C65.5553 36.4704 67.1273 38.1052 68.5068 38.1052C70.0779 38.1052 71.4906 36.2008 71.4906 34.083C71.4906 31.8868 70.0801 30.0561 68.4024 30.0734C67.7304 30.0806 66.929 30.2805 66.6219 30.518ZM90.1242 31.4025C87.6937 32.9631 88.806 37.6818 91.604 37.6818C93.1527 37.6818 94.1581 36.5285 94.1581 34.7528C94.1581 32.9394 93.8679 32.2196 92.8581 31.5269C91.8202 30.8152 91.0906 30.7818 90.1242 31.4025ZM139.38 31.9457C137.62 34.1096 138.72 37.6818 141.147 37.6818C142.774 37.6818 143.963 36.3197 143.963 34.4564C143.963 31.2826 141.166 29.7508 139.38 31.9457ZM154.474 32.1451C153.322 33.6723 153.27 35.2443 154.324 36.6424C155.336 37.9845 157.388 38.0831 158.329 36.835C159.306 35.5403 159.2 32.9047 158.127 31.7852C156.92 30.526 155.596 30.6565 154.474 32.1451ZM112.675 32.1777C111.724 33.4386 111.824 35.7045 112.878 36.8041C113.673 37.6339 114.117 37.6818 121.035 37.6818C129.228 37.6818 130.046 37.4608 130.298 35.1787C130.448 33.8268 130.109 32.7048 129.3 31.8737C128.938 31.5015 126.641 31.3542 121.056 31.3445C113.732 31.3318 113.279 31.3766 112.675 32.1777ZM102.378 32.2835C101.487 33.1858 101.387 34.8345 102.145 36.1123C103.382 38.1979 105.731 37.1458 105.731 34.5063C105.731 32.2802 103.706 30.938 102.378 32.2835ZM79.7786 32.9529C78.2433 34.602 79.8999 37.247 81.563 35.8019C82.5125 34.9767 82.5552 34.1494 81.707 33.0245C80.9206 31.9817 80.6911 31.9732 79.7786 32.9529ZM14.5248 33.2671C13.9035 34.0914 13.8958 34.4733 14.4874 35.1245C15.116 35.8167 16.2587 35.2727 16.2587 34.2811C16.2587 33.0812 15.1528 32.4347 14.5248 33.2671ZM26.4878 33.2158C25.8231 34.2781 26.218 35.3531 27.2731 35.3531C28.4107 35.3531 28.7807 34.0266 27.8855 33.1583C27.1557 32.4508 26.9615 32.4588 26.4878 33.2158ZM36.3194 32.9085C35.6141 33.1265 35.3131 34.2578 35.767 34.9835C36.2756 35.7956 36.9304 35.7079 37.3062 34.7765C37.6995 33.8022 37.1 32.6671 36.3194 32.9085ZM45.6082 33.2717C45.1217 34.0495 45.5367 35.2689 46.3617 35.4844C47.0826 35.6728 47.7058 34.0012 47.21 33.2091C46.7132 32.4152 46.1299 32.4381 45.6082 33.2717ZM4.50225 34.1575C4.58494 35.1139 4.76532 35.3531 5.40384 35.3531C6.04236 35.3531 6.20199 35.1414 6.20199 34.2946C6.20199 33.4479 6.02161 33.2086 5.3004 33.099C4.48054 32.9745 4.40839 33.0702 4.50225 34.1575ZM54.7582 33.7133C54.4865 34.6516 55.1653 35.6334 55.9784 35.4793C56.4382 35.3925 56.6763 34.9916 56.7459 34.1888C56.8363 33.1506 56.7447 33.0245 55.9021 33.0245C55.3243 33.0245 54.8802 33.2916 54.7582 33.7133ZM14.6266 42.5508C12.2325 44.2765 12.9269 49.2281 15.6441 49.8047C17.0856 50.1104 18.4312 48.7234 18.7863 46.5662C19.3561 43.1012 17.008 40.8343 14.6266 42.5508ZM44.329 43.1533C42.4453 45.6517 43.4561 49.5367 45.9901 49.5367C48.8018 49.5367 49.8509 44.6859 47.4577 42.751C46.0578 41.6189 45.4247 41.7002 44.329 43.1533ZM72.7431 43.1533C72.0238 44.1076 71.8099 44.7778 71.8099 46.0793C71.8099 50.7552 77.402 51.4106 78.0527 46.8109C78.6203 42.7989 74.9284 40.2556 72.7431 43.1533ZM92.5557 43.08C91.9341 43.8231 91.514 44.8117 91.3939 45.8126C91.2314 47.167 91.3384 47.5561 92.1787 48.6705C93.2683 50.1155 94.3225 50.3069 95.7608 49.3208C97.3523 48.2293 97.7606 46.3122 96.8814 44.0576C96.4523 42.9572 95.03 41.9157 93.956 41.9157C93.7213 41.9157 93.0914 42.4398 92.5557 43.08ZM53.6571 45.0191C53.1147 45.8862 53.5597 47.0667 54.371 46.913C54.8543 46.8215 55.0488 46.4824 55.0488 45.7321C55.0488 44.5242 54.2295 44.1046 53.6571 45.0191ZM64.1477 45.0911C63.8306 45.5979 63.8306 45.8545 64.1477 46.3613C64.3663 46.7106 64.7255 46.9964 64.9458 46.9964C65.1661 46.9964 65.5253 46.7106 65.744 46.3613C66.061 45.8545 66.061 45.5979 65.744 45.0911C65.5253 44.7418 65.1661 44.456 64.9458 44.456C64.7255 44.456 64.3663 44.7418 64.1477 45.0911ZM82.9875 45.0856C82.4703 45.9121 82.803 46.9964 83.5733 46.9964C84.3479 46.9964 85.0273 45.9315 84.7856 45.0966C84.5484 44.2761 83.498 44.2697 82.9875 45.0856ZM109.237 45.1127C108.848 45.4739 108.38 46.139 108.198 46.5908C107.901 47.3266 108.125 47.5802 110.351 49.0291C112.839 50.6481 120.057 56.4011 119.886 56.6281C119.836 56.6941 118.539 56.3533 117.005 55.8702C113.846 54.8748 112.735 54.9117 112.229 56.0281C111.783 57.0108 111.83 57.0566 117.93 61.6254C121.018 63.9388 123.049 65.2022 123.677 65.2026C124.21 65.2026 125.366 65.557 126.244 65.9893L127.84 66.7759L130.873 74.5248C132.673 79.1228 134.141 82.3813 134.485 82.5383C134.916 82.7352 141.275 82.7835 141.625 82.5925C141.657 82.5752 140.169 78.4463 138.32 73.4168C136.471 68.3878 135.081 64.1221 135.23 63.9384C136.21 62.733 139.501 59.2747 139.667 59.2747C140.108 59.2747 142.353 56.9151 142.36 56.4452C142.37 55.7169 141.294 55.3804 140.413 55.8368C139.995 56.0535 138.432 57.3919 136.94 58.8111C135.448 60.2303 134.155 61.4048 134.067 61.4204C133.978 61.4361 133.331 61.5102 132.629 61.5851C131.927 61.6601 130.993 61.8502 130.554 62.0073C130 62.2054 129.168 61.9277 127.84 61.1012L125.924 59.9098L127.86 59.6981C129.696 59.4974 129.908 59.3526 131.953 56.9037C134.074 54.3646 134.16 54.3092 137.059 53.6224C138.769 53.2172 141.697 52.9238 144.027 52.9238C148.58 52.9238 148.722 52.8155 147.792 50.0588C146.543 46.36 144.761 45.9002 132.31 46.0636C123.978 46.1733 122.158 46.0768 118.324 45.3227C112.978 44.2714 110.212 44.2075 109.237 45.1127ZM194.406 47.8432V50.3835H196.321H198.237V47.8432V45.3028H196.321H194.406V47.8432ZM252.511 47.6234C252.511 49.7095 252.587 49.9694 253.265 50.1951C253.68 50.3331 254.506 50.3843 255.101 50.309C256.18 50.1722 256.183 50.1659 256.278 47.7373L256.374 45.3028H254.443H252.511V47.6234ZM214.2 50.5567C213.761 50.8657 210.22 52.7888 206.332 54.8295L199.262 58.5397L199.696 59.9153C199.934 60.6719 200.841 63.0285 201.711 65.1518C202.602 67.3276 203.123 69.0127 202.903 69.0127C202.517 69.0127 200.076 70.221 184.668 78.0411C166.737 87.1414 141.176 101.043 133.482 105.879C132.019 106.798 130.69 107.441 130.528 107.309C130.367 107.176 130.234 107.228 130.234 107.425C130.234 107.621 129.336 108.327 128.239 108.992C127.142 109.658 125.701 110.557 125.037 110.989C123.566 111.947 123.61 111.945 123.431 111.034C123.321 110.477 123.276 110.529 123.248 111.246C123.198 112.525 122.634 112.458 122.384 111.143C122.271 110.546 122.037 110.208 121.845 110.366C121.635 110.538 121.581 110.384 121.704 109.961C121.842 109.481 121.764 109.348 121.439 109.513C121.184 109.643 120.958 109.538 120.936 109.28C120.914 109.022 120.878 108.573 120.856 108.283C120.834 107.992 120.601 107.754 120.337 107.753C120.074 107.753 118.955 106.8 117.851 105.636C113.493 101.041 106.814 96.8693 101.234 95.257C94.0479 93.1811 88.5765 93.2569 79.5417 95.5576C77.3839 96.1071 76.7603 96.4475 76.1496 97.4099C75.247 98.8325 75.3629 100.273 76.4928 101.68C77.1958 102.557 77.6508 102.678 80.7702 102.819C82.6903 102.906 84.261 103.123 84.261 103.301C84.261 103.951 82.1214 104.154 75.2818 104.154C68.7236 104.154 68.2591 104.206 67.6595 105.001C66.8502 106.074 66.8409 107.384 67.6384 107.95C68.0404 108.235 73.7641 108.388 84.0206 108.388H99.785L102.491 109.601C103.98 110.268 105.695 111.174 106.302 111.612L107.407 112.41L100.703 112.668C97.0155 112.81 86.3803 112.953 77.0691 112.986C62.3116 113.038 60.0484 113.13 59.43 113.705C58.5737 114.5 58.5092 116.048 59.2927 116.988C59.8089 117.608 62.1133 117.678 82.8381 117.703C95.4731 117.719 105.883 117.714 105.971 117.692C107.422 117.34 108.702 117.396 108.906 117.821C109.1 118.226 109.155 118.227 109.159 117.822C109.161 117.538 109.364 117.408 109.61 117.533C109.855 117.658 110.15 117.559 110.265 117.313C110.389 117.047 110.285 116.961 110.01 117.101C109.756 117.231 109.451 117.13 109.333 116.878C109.215 116.625 108.985 116.528 108.822 116.662C108.437 116.978 108.449 116.396 108.844 115.586C109.108 115.043 109.154 115.058 109.159 115.692C109.161 116.099 109.324 116.432 109.52 116.432C109.719 116.432 109.803 116.059 109.71 115.586C109.618 115.121 109.709 114.614 109.912 114.46C110.115 114.306 110.178 114.331 110.052 114.515C109.741 114.972 110.397 116.518 110.772 116.211C110.942 116.071 110.982 116.296 110.865 116.728C110.751 117.148 110.775 117.35 110.919 117.177C111.062 117.004 111.337 117.034 111.528 117.242C112.012 117.767 113.392 117.955 113.869 117.562C114.144 117.334 114.203 117.447 114.062 117.935C113.95 118.32 114.045 118.787 114.271 118.973C114.566 119.214 114.394 119.51 113.67 120.006C113.113 120.388 112.513 120.584 112.339 120.441C112.164 120.297 112.06 120.385 112.108 120.636C112.157 120.887 107.684 124.569 102.168 128.818C96.0117 133.561 91.8821 137.005 91.4728 137.739C91.0338 138.526 90.8059 139.572 90.8059 140.799C90.8059 143.083 91.8428 144.67 93.7089 145.24C94.395 145.45 107.197 145.631 122.158 145.643C138.017 145.656 149.435 145.825 149.539 146.048C149.714 146.423 146.5 147.177 145.559 146.981C145.274 146.922 145.21 147.017 145.399 147.216C145.841 147.68 145.947 148.61 145.559 148.61C145.383 148.61 145.24 148.408 145.24 148.162C145.24 147.915 145.077 147.847 144.877 148.01C144.64 148.205 144.755 148.478 145.206 148.798C145.587 149.068 145.803 149.416 145.685 149.572C145.568 149.727 145.779 149.775 146.154 149.68C146.606 149.564 146.836 149.72 146.836 150.141C146.836 150.491 146.702 150.667 146.539 150.534C146.375 150.399 146.149 150.488 146.036 150.73C145.923 150.973 146.003 151.119 146.214 151.055C146.424 150.991 146.669 151.203 146.758 151.527C146.866 151.921 146.784 152.004 146.509 151.779C146.238 151.557 146.177 151.611 146.33 151.939C146.457 152.212 146.678 152.338 146.822 152.221C147.197 151.913 147.455 153.531 147.118 154.079C146.922 154.397 146.953 154.408 147.219 154.114C147.711 153.571 148.209 153.565 147.958 154.105C147.851 154.334 147.905 154.87 148.078 155.298C148.356 155.986 148.283 156.055 147.451 155.894C146.932 155.793 146.271 155.969 145.974 156.288C145.654 156.632 145.529 156.661 145.665 156.362C145.836 155.982 144.888 155.861 141.815 155.873C137.344 155.891 136.516 156.042 136.798 156.791C136.902 157.065 136.796 156.995 136.563 156.634C135.946 155.677 128 155.649 128 156.604C128 157.088 127.894 157.047 127.555 156.434C127.169 155.733 127.041 155.705 126.573 156.22C126.258 156.567 125.946 156.648 125.82 156.416C125.503 155.831 124.488 155.696 124.488 156.238C124.488 156.495 124.355 156.596 124.192 156.463C123.624 155.997 121.295 155.885 121.295 156.323C121.295 156.589 121.116 156.561 120.837 156.254C120.496 155.879 120.208 155.87 119.719 156.217C119.279 156.529 119.06 156.539 119.06 156.246C119.06 156.005 118.836 155.808 118.563 155.808C118.249 155.808 118.154 156.004 118.305 156.337C118.488 156.741 118.425 156.738 118.038 156.322C117.618 155.871 117.435 155.907 116.962 156.534C116.438 157.23 116.435 157.301 116.928 157.426C117.524 157.579 117.635 158.158 117.145 158.56C116.969 158.704 116.826 158.622 116.826 158.378C116.826 157.833 115.489 157.976 115.125 158.56C114.968 158.812 114.917 158.726 114.999 158.348C115.074 157.999 115.392 157.775 115.705 157.851C116.117 157.951 116.219 157.799 116.074 157.299C115.946 156.854 116.001 156.714 116.232 156.903C116.447 157.079 116.53 156.962 116.441 156.608C116.339 156.201 115.743 156.017 114.51 156.009C113.529 156.004 112.784 156.122 112.854 156.272C112.924 156.422 112.445 156.522 111.79 156.494C111.136 156.466 110.6 156.633 110.6 156.866C110.6 157.099 110.851 157.267 111.159 157.239C112.016 157.161 111.822 157.799 110.919 158.028C110.384 158.164 110.121 158.041 110.121 157.654C110.121 156.8 109.694 156.955 109.209 157.986C108.841 158.767 108.847 158.86 109.255 158.653C109.651 158.451 109.673 158.608 109.383 159.624C109.194 160.291 108.916 160.736 108.766 160.613C108.616 160.49 108.662 160.121 108.868 159.792C109.118 159.393 109.128 159.195 108.899 159.195C108.711 159.195 108.427 159.501 108.269 159.876C108.006 160.499 107.964 160.496 107.778 159.855C107.666 159.468 107.701 159.255 107.857 159.382C108.012 159.509 108.221 159.329 108.322 158.981C108.422 158.633 108.348 158.348 108.156 158.348C107.926 158.348 107.943 158.132 108.206 157.713C108.529 157.197 108.514 157.078 108.124 157.078C107.455 157.078 106.804 158.234 106.727 159.559C106.691 160.174 106.733 160.341 106.82 159.931C106.998 159.084 107.567 159.349 107.567 160.278C107.567 160.91 105.69 161.19 105.611 160.571C105.588 160.396 105.536 159.819 105.494 159.287C105.453 158.756 105.304 158.184 105.165 158.017C105.025 157.85 104.995 158.023 105.097 158.402C105.199 158.782 105.121 159.305 104.924 159.567C104.66 159.918 104.666 160.042 104.949 160.042C105.16 160.042 105.332 160.327 105.332 160.677C105.332 161.061 105.036 161.312 104.581 161.312C103.607 161.312 101.78 162.954 101.271 164.288C100.853 165.384 100.747 167.704 101.049 169.145C101.373 170.69 102.646 171.497 105.253 171.812L107.727 172.11L104.913 173.722C101.311 175.786 98.2309 176.554 93.5518 176.554C90.4604 176.554 89.146 176.334 85.9975 175.289C83.1612 174.348 81.4349 174.023 79.2515 174.019C77.6377 174.016 76.2438 174.171 76.1541 174.364C75.9376 174.828 80.4018 178.628 82.8307 180.048C86.0971 181.957 88.3345 182.574 92.7917 182.794C96.1337 182.959 97.4966 182.847 99.3365 182.259C102.003 181.406 105.565 179.621 107.414 178.211C110.091 176.17 113.979 171.843 116.112 168.529C117.607 166.207 118.241 165.835 119.454 166.567C119.888 166.829 119.935 167.076 119.677 167.717C119.496 168.166 119.24 168.445 119.109 168.338C118.978 168.23 118.662 168.338 118.407 168.577C118.035 168.927 118.059 168.963 118.528 168.761C118.917 168.594 119.065 168.687 118.967 169.038C118.887 169.33 118.649 169.515 118.438 169.452C118.227 169.388 118.145 169.529 118.256 169.766C118.737 170.799 113.771 178.113 110.742 180.831C104.912 186.063 97.0831 188.702 90.5495 187.637C83.7908 186.536 77.3446 182.608 72.3395 176.542L70.5357 174.355L65.8378 174.415C63.2541 174.447 61.0786 174.555 61.0036 174.655C60.7574 174.981 64.5167 180.77 66.8301 183.625C69.7248 187.199 73.9352 190.883 77.1291 192.636C78.5054 193.392 79.6557 194.036 79.6851 194.067C79.7144 194.099 66.7356 194.125 50.8438 194.125H21.9492L21.3387 195.124C20.5505 196.415 20.5684 196.703 21.5143 197.958L22.3003 199L145.467 198.967L268.634 198.934L269.432 197.85C269.871 197.253 270.065 196.885 269.864 197.03C269.663 197.176 269.413 196.999 269.308 196.636C269.203 196.273 269.001 196.071 268.86 196.187C268.719 196.303 268.395 196.215 268.139 195.993C267.804 195.7 267.916 195.641 268.549 195.78C269.029 195.885 269.566 196.09 269.742 196.234C270.16 196.576 269.75 195.071 269.323 194.692C269.149 194.538 268.74 194.48 268.413 194.564C268.074 194.65 267.904 194.532 268.017 194.29C268.148 194.007 265.983 193.946 261.56 194.108L254.905 194.351L258.166 192.263C262.49 189.494 265.731 186.465 268.488 182.615C274.268 174.547 277.393 164.696 277.934 152.844C278.537 139.619 275.012 127.297 267.885 117.723C262.431 110.397 257.068 106.409 249.842 104.306C246.315 103.28 239.119 103.389 235.022 104.531C231.966 105.382 228.247 106.938 228.247 107.365C228.247 107.468 228.925 108.93 229.753 110.616C230.581 112.301 231.274 113.726 231.292 113.781C231.311 113.836 232.118 113.512 233.087 113.06C236.845 111.309 242.241 110.862 246.497 111.951C249.099 112.617 254.315 115.004 254.626 115.671C254.754 115.946 254.554 115.984 254.067 115.777C249.243 113.723 243.268 112.948 239.233 113.853C236.959 114.363 233.075 115.874 232.617 116.427C232.425 116.659 234.616 122.139 235.481 123.59C235.538 123.685 236.667 123.447 237.99 123.061C240.986 122.188 245.075 122.161 247.575 122.996C253.422 124.95 258.814 130.707 261.525 137.891C262.332 140.029 263.165 142.882 263.376 144.23C263.896 147.551 263.625 155.434 262.906 157.925C261.921 161.337 261.926 161.602 262.998 162.337C264.463 163.342 264.886 163.17 265.614 161.278C267.361 156.735 268.196 146.906 267.263 141.847C267.071 140.806 266.949 139.907 266.992 139.85C267.034 139.793 267.825 141.086 268.749 142.722L270.428 145.698L270.615 150.077C270.852 155.639 270.019 160.838 268.021 166.263C264.435 175.999 259.101 182.247 251.41 185.72C244.972 188.628 237.028 187.745 231.053 183.457C228.152 181.376 223.772 175.288 222.292 171.279C221.82 170.001 221.824 170.003 222.877 171.524C225.338 175.08 230.267 179.141 234.473 181.078C236.88 182.187 237.339 182.254 242.454 182.247C247.814 182.24 247.917 182.223 250.669 180.842C252.202 180.073 254.313 178.709 255.361 177.811C257.407 176.057 259.854 172.964 259.854 172.131C259.854 171.482 258.502 169.78 257.986 169.78C257.771 169.78 256.703 170.685 255.612 171.791C252.683 174.76 249.509 176.543 245.871 177.261C234.171 179.569 223.954 169.408 222.513 154.031C221.956 148.087 222.883 141.516 224.946 136.789C226.613 132.97 226.43 133.034 227.813 135.78C233.115 146.301 237.427 154.304 238.466 155.549C242.425 160.291 247.918 157.04 247.865 149.987C247.847 147.605 247.278 146.193 245.712 144.643C244.55 143.492 244.356 143.96 245.146 146.012C246.329 149.086 245.779 152.23 243.876 153.275C242.035 154.287 241.499 153.646 238.207 146.493C236.546 142.884 234.81 139.134 234.351 138.161C233.891 137.188 232.586 134.426 231.451 132.022C229.593 128.088 226.424 121.555 222.658 113.892C220.326 109.147 217.712 103.706 217.712 103.597C217.712 103.54 219.22 102.641 221.062 101.601C222.905 100.56 224.412 99.518 224.41 99.2851C224.405 98.3465 221.809 92.7226 221.381 92.7226C221.128 92.7226 218.583 93.9407 215.725 95.4293C212.867 96.9179 210.201 98.2664 209.801 98.4256L209.073 98.7148L210.099 101.117C210.663 102.438 212.478 106.377 214.131 109.87C215.784 113.363 217.277 116.569 217.449 116.995C217.703 117.625 217.489 118.14 216.306 119.747C207.511 131.695 204.72 152.26 209.708 168.371C212.945 178.827 218.674 187.12 226.059 192.039C227.614 193.074 228.886 193.967 228.886 194.023C228.886 194.079 201.649 194.076 168.36 194.017L107.834 193.909L110.334 192.184C114.346 189.418 117.761 186.179 120.433 182.608C123.444 178.582 125.325 175.087 127.278 169.886L128.748 165.969H137.963C148.667 165.969 148.028 165.412 143.907 171.159L141.249 174.867L137.054 174.864C132.376 174.86 131.432 175.308 131.432 177.531C131.432 179.858 131.674 179.941 138.474 179.941H144.72L147.957 175.39C149.737 172.886 151.985 169.717 152.952 168.346L154.709 165.855L156.44 166.708C160.199 168.564 163.949 168.272 167.375 165.856C171.304 163.087 173.998 156.029 173.576 149.611L173.412 147.128L175.676 143.953C176.921 142.206 180.388 137.432 183.379 133.343C193.123 120.025 193.823 119.013 193.611 118.556C193.495 118.308 193.591 118.157 193.823 118.221C194.057 118.286 194.198 118.054 194.14 117.703C194.081 117.353 194.141 117.211 194.274 117.386C194.652 117.888 195.658 116.431 195.471 115.652C195.359 115.181 195.394 115.117 195.581 115.456C195.917 116.07 198.086 113.327 197.782 112.673C197.675 112.444 197.756 112.119 197.962 111.951C198.217 111.741 198.25 111.832 198.065 112.239C197.836 112.744 197.876 112.747 198.332 112.257C198.627 111.939 198.776 111.481 198.663 111.238C198.55 110.996 198.603 110.917 198.781 111.063C199.111 111.333 202.263 107.235 201.996 106.882C201.83 106.661 200.419 108.199 200.451 108.568C200.476 108.862 200.152 108.952 199.964 108.703C199.89 108.604 200.108 108.19 200.448 107.781C200.804 107.354 200.985 106.756 200.875 106.374C200.732 105.88 200.799 105.805 201.136 106.084C201.818 106.647 202.65 106.735 202.869 106.265C202.976 106.036 202.947 105.835 202.805 105.818C202.663 105.802 202.129 105.717 201.617 105.628C201.106 105.54 200.44 105.643 200.138 105.858C199.756 106.129 199.592 106.09 199.601 105.73C199.645 104.029 199.509 103.568 199.117 104.087C198.802 104.506 198.809 104.685 199.151 104.966C199.452 105.212 199.475 105.406 199.229 105.608C199.034 105.767 198.875 105.685 198.875 105.424C198.875 105.164 198.709 105.087 198.507 105.253C198.276 105.442 198.225 105.369 198.371 105.056C198.498 104.782 198.413 103.984 198.18 103.283C197.627 101.614 196.436 101.668 196.566 103.356C196.613 103.964 196.435 104.7 196.171 104.991C195.906 105.282 195.782 105.719 195.895 105.961C196.014 106.216 195.946 106.275 195.736 106.103C195.471 105.886 195.505 105.532 195.857 104.819C196.251 104.022 196.271 103.626 195.966 102.737C195.759 102.134 195.497 101.716 195.383 101.809C195.27 101.903 195.155 101.602 195.129 101.14C195.095 100.531 195.23 100.365 195.626 100.532C195.967 100.675 196.33 100.422 196.597 99.8559C196.981 99.0391 196.966 98.9799 196.433 99.25C195.945 99.4968 195.965 99.3969 196.547 98.6763C196.935 98.1962 197.317 97.8033 197.397 97.8033C197.603 97.8033 197.466 98.7652 197.171 99.391C197.034 99.6823 197.046 99.9202 197.196 99.9202C197.624 99.9202 198.196 99.0218 198.105 98.4925C198.059 98.23 198.083 98.1576 198.156 98.3325C198.346 98.7834 198.875 98.7267 198.875 98.255C198.875 98.0378 198.57 97.7317 198.197 97.5746L197.519 97.2893L198.277 96.351C198.694 95.8345 199.812 94.243 200.762 92.8136C201.711 91.3842 202.631 90.3321 202.806 90.4756C202.981 90.6192 203.039 90.554 202.935 90.3308C202.831 90.1077 203.204 89.2558 203.764 88.4374C207.431 83.0765 211.037 77.0651 211.423 75.6713C211.593 75.0595 211.529 74.9948 211.08 75.3216C210.105 76.03 197.357 93.472 186.448 109.023C182.691 114.379 178.162 120.762 176.384 123.207C174.606 125.652 171.792 129.653 170.131 132.098C168.471 134.543 166.968 136.509 166.791 136.467C166.615 136.425 165.537 136.17 164.395 135.9C163.254 135.629 162.023 135.336 161.66 135.246C161.146 135.12 159.864 131.988 155.831 120.995C152.988 113.246 150.663 106.785 150.665 106.638C150.666 106.49 151.493 105.939 152.503 105.412C153.513 104.886 155.991 103.544 158.01 102.429C160.029 101.314 164.411 98.9786 167.747 97.238C171.084 95.4975 176.256 92.7996 179.241 91.2428C182.226 89.686 187.751 86.7938 191.52 84.8153C195.287 82.8372 200.819 79.9857 203.811 78.4789C208.882 75.925 210.453 74.9402 209.456 74.9402C209.235 74.9402 209.137 74.7628 209.238 74.546C209.339 74.3292 209.253 74.0142 209.048 73.8457C208.842 73.6772 208.758 73.7204 208.862 73.9422C208.965 74.1641 208.918 74.6222 208.756 74.9605C208.515 75.466 208.462 75.4393 208.458 74.8093C208.455 74.3881 208.317 74.1552 208.15 74.2915C207.984 74.4278 207.9 74.1772 207.965 73.7339C208.029 73.2911 207.914 72.9528 207.709 72.982C207.504 73.0112 207.312 72.8655 207.283 72.6589C207.254 72.4519 207.039 72.1043 206.804 71.8858C206.466 71.5704 206.477 71.5281 206.857 71.6796C207.12 71.7846 207.289 72.1327 207.233 72.4527C207.149 72.9291 207.207 72.9354 207.55 72.4879C207.895 72.037 207.885 71.8714 207.493 71.542C207.231 71.3223 207.151 71.1398 207.316 71.136C207.481 71.1326 207.307 70.7486 206.93 70.2829C206.09 69.2443 205.935 69.2257 206.043 70.177C206.089 70.5843 206.065 70.68 205.989 70.3887C205.914 70.0978 205.692 69.8595 205.496 69.8595C205.299 69.8595 205.417 69.5864 205.758 69.2527C206.269 68.7527 206.305 68.5486 205.96 68.0884C205.615 67.6278 205.579 67.6595 205.755 68.2718C206.01 69.1613 205.7 69.2333 205.092 68.4259C204.715 67.9263 205.013 67.6731 207.11 66.7154C211.316 64.794 211.061 65.054 210.495 63.2571C210.226 62.4027 210.126 61.5437 210.274 61.348C210.421 61.1524 212.263 60.1308 214.366 59.0774C216.485 58.016 218.44 56.7623 218.749 56.2661C220.238 53.879 218.655 49.9432 216.22 49.977C215.548 49.9864 214.639 50.2472 214.2 50.5567ZM85.652 52.0737C82.9147 53.5386 83.6828 59.2747 86.6165 59.2747C89.7552 59.2747 90.8381 54.172 88.0985 52.293C87.0565 51.5783 86.6459 51.5415 85.652 52.0737ZM99.2678 52.4073C96.6333 54.1817 97.547 59.2747 100.5 59.2747C102.998 59.2747 104.337 55.5743 102.698 53.2012C101.722 51.7875 100.58 51.5233 99.2678 52.4073ZM181.316 55.4549V59.2747H178.443H175.569V65.4139V71.553H176.987C178.179 71.553 178.636 71.2867 179.863 69.8781C181.724 67.7425 182.914 67.3242 187.143 67.3217L190.575 67.3191V63.2969V59.2747H192.024H193.473L193.381 55.57L193.288 51.8654L187.302 51.7502L181.316 51.635V55.4549ZM153.105 52.9547C151.94 54.1699 151.93 56.5946 153.084 58.0329L153.905 59.0554L164.498 59.0592L175.09 59.063L175.264 57.3377C175.515 54.8443 175.066 52.9708 174.099 52.4835C173.648 52.2561 169.031 52.0771 163.619 52.0771C154.316 52.0771 153.914 52.1105 153.105 52.9547ZM24.5594 53.3472C23.6719 54.5243 23.737 56.529 24.7047 57.8119C26.2327 59.8387 28.3905 58.588 28.3905 55.6759C28.3905 53.8274 27.4567 52.5005 26.1557 52.5005C25.6235 52.5005 24.9141 52.8768 24.5594 53.3472ZM0.504795 54.1216C-0.188318 55.1373 -0.165651 56.4325 0.560346 57.3038C1.72341 58.6997 3.48828 57.7399 3.48828 55.7114C3.48828 53.6754 1.52355 52.6287 0.504795 54.1216ZM42.981 54.885C42.6037 55.3854 42.7323 56.631 43.1854 56.8614C43.8287 57.1891 44.4314 56.5244 44.3015 55.6302C44.1831 54.8147 43.3773 54.36 42.981 54.885ZM53.4141 55.2322C53.1686 56.0802 53.5329 56.7344 54.2506 56.7344C55.0488 56.7344 55.3562 55.9989 54.8776 55.2339C54.3828 54.4434 53.6427 54.4421 53.4141 55.2322ZM62.3384 55.2838C62.0887 56.1467 63.0226 57.2162 63.7167 56.8631C63.9724 56.7331 64.1378 56.222 64.0848 55.728C63.9615 54.5818 62.6388 54.2457 62.3384 55.2838ZM71.3843 54.8998C70.9798 55.4358 71.1733 56.6446 71.7071 56.9164C72.0066 57.0688 72.4516 56.9113 72.7172 56.5595C73.107 56.0425 73.1185 55.8131 72.7811 55.2737C72.3498 54.5848 71.7438 54.4226 71.3843 54.8998ZM129.436 56.9592C128.766 57.6883 128.096 57.9965 127.201 57.9876C125.934 57.9745 125.94 57.9673 128 56.9905C129.141 56.4494 130.147 55.9866 130.234 55.9621C130.322 55.938 129.963 56.3868 129.436 56.9592ZM245.241 67.425L245.328 75.5752L248.092 75.6972L250.857 75.8187L250.966 78.0258C251.025 79.2393 251.03 81.0425 250.976 82.032L250.878 83.8314H248.078H245.278L245.303 79.915L245.328 75.9986L243.168 75.7869C241.98 75.6705 241.01 75.4326 241.013 75.2577C241.015 75.0828 241.018 71.4154 241.018 67.1074V59.2747H243.086H245.154L245.241 67.425ZM161.228 61.7092C160.852 62.1165 160.459 63.1559 160.355 64.0184C160.192 65.3741 160.298 65.761 161.139 66.8763C162.316 68.4377 163.404 68.5271 164.602 67.1616C167.098 64.3135 163.778 58.9461 161.228 61.7092ZM48.3085 62.23C47.9379 62.4285 47.3271 63.1094 46.9517 63.7423C44.8925 67.2141 47.8724 72.3706 50.854 70.4941C51.9398 69.8108 52.9736 67.7561 52.9736 66.2814C52.9736 64.8961 51.9545 63.0082 50.8875 62.4167C49.6664 61.7401 49.2756 61.7117 48.3085 62.23ZM31.5748 63.4544C31.0707 64.1229 30.5625 65.1746 30.4459 65.7911C29.9827 68.2387 31.8663 71.1246 33.9297 71.1279C35.3217 71.1305 37.0106 68.6947 37.0106 66.684C37.0106 65.4668 36.7682 64.7961 35.9251 63.678C34.4852 61.7685 32.9074 61.6872 31.5748 63.4544ZM63.263 63.3685C62.5967 63.7241 61.8458 66.0604 62.0504 67.1413C62.1545 67.6921 62.5526 68.5287 62.9348 69.0008C63.5775 69.7951 64.0455 69.8595 69.1808 69.8595H74.7324L75.6656 68.6219C76.678 67.2793 76.8015 66.4982 76.2275 65.0684C75.4839 63.2169 75.1031 63.111 69.2558 63.1322C66.1829 63.1432 63.4862 63.2495 63.263 63.3685ZM105.948 64.6027C105.42 65.4473 105.905 66.6265 106.86 66.8157C107.804 67.0029 108.379 65.4922 107.703 64.5963C107.065 63.7504 106.481 63.7525 105.948 64.6027ZM85.2316 64.9702C84.8973 65.504 84.8973 65.7471 85.2316 66.281C85.8717 67.3039 86.9747 66.889 86.9747 65.6256C86.9747 64.3622 85.8717 63.9472 85.2316 64.9702ZM94.2737 64.9905C93.9633 66.0621 94.4183 66.9656 95.1944 66.8195C95.71 66.7226 95.9427 66.3542 96.0149 65.5197C96.1024 64.5142 96.0031 64.3554 95.2867 64.3554C94.8305 64.3554 94.3745 64.6412 94.2737 64.9905ZM11.2565 65.4469C11.1502 65.814 11.2983 66.4266 11.5857 66.8077C12.0697 67.4491 12.1469 67.4491 12.6309 66.8077C13.2835 65.9418 12.984 64.7788 12.1083 64.7788C11.7459 64.7788 11.3628 65.0794 11.2565 65.4469ZM222.164 68.8247C221.123 70.2951 221.116 72.8008 222.149 74.2593C223.061 75.5469 224.33 75.9639 226.201 75.5913L227.609 75.3115V71.5272V67.7425H225.27C223.174 67.7425 222.851 67.8551 222.164 68.8247ZM79.7196 73.0425C78.0374 74.2864 77.7098 76.685 78.9594 78.6118C80.6144 81.1632 83.9418 79.5598 83.9418 76.2103C83.9418 73.4439 81.5767 71.6695 79.7196 73.0425ZM94.3608 73.2775C93.722 73.9435 93.5209 74.5295 93.5244 75.712C93.5349 79.0839 93.8174 79.1741 104.338 79.1741C110.307 79.1741 113.547 79.0149 114.075 78.6956C115.199 78.0169 115.734 76.1324 115.246 74.5718C115.038 73.9033 114.511 73.1412 114.075 72.8782C113.546 72.5586 110.282 72.3998 104.243 72.3998C95.5798 72.3998 95.167 72.4366 94.3608 73.2775ZM3.33535 75.6265C2.71312 76.4517 2.80666 77.4322 3.56809 78.0682C4.30111 78.6804 5.20526 77.9555 5.3518 76.6384C5.52994 75.0405 4.25865 74.4025 3.33535 75.6265ZM21.7659 75.2204C21.1842 75.5316 21.2774 77.4615 21.8891 77.7731C22.445 78.0559 23.3296 77.5046 23.517 76.7586C23.6349 76.2904 22.7601 74.9152 22.3818 74.9736C22.2624 74.9918 21.9856 75.1032 21.7659 75.2204ZM42.301 75.6053C41.6459 76.4745 41.6676 76.7675 42.4568 77.7146C42.96 78.3188 43.2403 78.398 43.654 78.0525C44.3462 77.4742 44.5132 76.3407 44.0215 75.5549C43.5228 74.7577 42.9271 74.7755 42.301 75.6053ZM67.672 75.7565C67.2196 76.8772 67.5717 77.8586 68.5426 78.1816C69.1281 78.3768 69.4752 78.2346 69.7845 77.6736C70.3333 76.6782 70.3241 76.4174 69.712 75.6053C69.0279 74.698 68.0704 74.7691 67.672 75.7565ZM87.7505 75.6108C87.1826 76.5186 87.7547 77.6922 88.7655 77.6922C89.327 77.6922 89.5572 77.425 89.6364 76.6816C89.8072 75.082 88.534 74.3593 87.7505 75.6108ZM29.576 75.6265C28.7159 76.7671 30.2033 78.8955 31.14 77.8645C31.8785 77.0516 31.5611 75.5964 30.6136 75.4499C30.1679 75.3809 29.7008 75.4605 29.576 75.6265ZM54.5564 76.0198C54.2174 76.5622 54.2382 76.7988 54.6771 77.3806C55.1551 78.0144 55.2575 78.0199 55.6991 77.4348C56.238 76.7201 56.0244 75.3635 55.3728 75.3635C55.15 75.3635 54.7825 75.6591 54.5564 76.0198ZM37.7969 83.4211C35.8475 84.3864 35.3277 87.9167 36.8749 89.6818C38.6401 91.6954 41.1609 90.0137 41.1609 86.8222C41.1609 84.4491 39.3724 82.6412 37.7969 83.4211ZM50.2142 83.4147C48.4519 84.331 47.9337 87.771 49.2877 89.5662C50.9852 91.8178 53.9566 90.2635 54.0246 87.0889C54.0795 84.5219 51.9794 82.4973 50.2142 83.4147ZM10.4951 84.4902C9.44822 85.9678 9.44631 88.4662 10.4906 89.94C11.3839 91.2013 13.038 91.7289 13.9868 91.0553C15.0062 90.3317 15.7105 88.202 15.4768 86.5504C15.0535 83.5574 12.039 82.311 10.4951 84.4902ZM133.984 83.6569C133.901 83.7683 117.933 83.85 98.5013 83.8386L63.171 83.8178L62.3822 84.864C61.22 86.4056 61.3037 88.5136 62.5846 89.9426L63.5752 91.0481L100.018 90.9947C120.061 90.9651 136.281 90.8495 136.061 90.7381C135.842 90.6264 135.664 90.2174 135.667 89.8295C135.671 89.23 135.716 89.2173 135.969 89.7466C136.132 90.0891 136.381 90.2165 136.522 90.0294C136.663 89.8427 136.5 89.4193 136.159 89.089C135.819 88.7588 135.711 88.4887 135.92 88.4887C136.129 88.4887 136.3 88.1076 136.3 87.6419C136.3 87.1761 136.157 86.7951 135.981 86.7951C135.806 86.7951 135.698 86.6431 135.742 86.4577C135.844 86.0262 134.188 83.3872 133.984 83.6569ZM134.93 83.7505C134.871 83.9114 135.203 84.5765 135.668 85.229C136.133 85.881 136.506 86.1668 136.497 85.8641C136.479 85.2078 135.085 83.3288 134.93 83.7505ZM136.3 84.0215C136.3 84.1832 136.516 84.6011 136.779 84.9504C137.043 85.2997 137.258 85.4047 137.258 85.1837C137.258 84.9627 137.043 84.5448 136.779 84.2548C136.516 83.9647 136.3 83.8597 136.3 84.0215ZM133.427 85.5249C133.427 85.7578 133.364 85.9483 133.286 85.9483C133.209 85.9483 133.057 85.7578 132.948 85.5249C132.84 85.2921 132.903 85.1015 133.089 85.1015C133.275 85.1015 133.427 85.2921 133.427 85.5249ZM131.45 87.4412C131.352 87.5716 131.173 87.3366 131.053 86.9192C130.88 86.3158 130.916 86.2671 131.232 86.6821C131.45 86.9695 131.548 87.3112 131.45 87.4412ZM134.385 88.0653C134.573 88.531 134.655 88.912 134.567 88.912C134.479 88.912 134.254 88.531 134.066 88.0653C133.878 87.5995 133.796 87.2185 133.884 87.2185C133.971 87.2185 134.197 87.5995 134.385 88.0653ZM135.145 87.8756C135.254 88.2524 135.201 88.4222 135.02 88.274C134.846 88.1317 134.704 87.8362 134.704 87.6169C134.704 87.0081 134.933 87.1423 135.145 87.8756ZM136.63 88.277C136.63 88.5098 136.769 88.9861 136.939 89.3354C137.109 89.6847 137.248 89.78 137.248 89.5471C137.248 89.3143 137.109 88.838 136.939 88.4887C136.769 88.1394 136.63 88.0441 136.63 88.277ZM135.103 90.0391C134.884 90.1568 134.525 90.1568 134.305 90.0391C134.086 89.9218 134.265 89.8257 134.704 89.8257C135.143 89.8257 135.323 89.9218 135.103 90.0391ZM42.5721 94.0541C41.5808 94.6918 40.8417 96.6516 40.8417 98.642C40.8417 101.947 43.6857 104.225 45.908 102.701C48.2405 101.101 48.6501 97.4891 46.7799 95.0089C45.9074 93.8518 45.4531 93.5749 44.4653 93.5981C43.7894 93.6138 42.9373 93.8187 42.5721 94.0541ZM56.7313 94.4017C54.9067 96.3053 54.8061 99.692 56.5103 101.857C57.2935 102.852 57.7682 103.096 58.9255 103.096C60.1809 103.096 60.5059 102.893 61.4585 101.514C62.9951 99.2906 62.9977 97.0403 61.4659 95.0089C60.5557 93.8018 60.1505 93.5694 58.9549 93.5694C58.0211 93.5694 57.2542 93.8564 56.7313 94.4017ZM200.502 94.2044C200.465 94.9627 200.983 95.7024 201.674 95.879C202.175 96.0068 202.302 95.8853 202.165 95.4103C202.014 94.8891 201.928 94.8747 201.709 95.3332C201.459 95.8565 201.293 95.5174 201.399 94.7024C201.425 94.5101 201.31 94.464 201.145 94.599C200.981 94.7341 200.773 94.6054 200.684 94.3128C200.595 94.0202 200.513 93.9716 200.502 94.2044ZM203.026 94.5825C203.026 94.674 203.241 94.8586 203.505 94.9928C203.768 95.1266 203.983 95.0516 203.983 94.8264C203.983 94.6007 203.768 94.4161 203.505 94.4161C203.241 94.4161 203.026 94.4911 203.026 94.5825ZM205.4 95.166C205.509 95.3103 205.823 95.4721 206.097 95.5258C206.372 95.5792 206.507 95.5047 206.398 95.3599C206.289 95.2155 205.975 95.0538 205.701 95C205.427 94.9466 205.291 95.0212 205.4 95.166ZM200.431 96.8506C200.034 97.5221 200.045 97.5369 200.551 97.0107C201.083 96.4573 201.252 96.1097 200.989 96.1097C200.923 96.1097 200.672 96.4433 200.431 96.8506ZM202.587 96.4475C202.5 96.6334 202.557 97.0593 202.713 97.3947C202.928 97.8545 202.984 97.7711 202.944 97.0568C202.885 96.0293 202.827 95.9306 202.587 96.4475ZM0.427534 97.5882C-0.192788 98.8439 0.0121775 99.8059 1.00699 100.304C2.50049 101.052 3.71846 98.8871 2.66938 97.3494C1.90826 96.2337 1.05169 96.3252 0.427534 97.5882ZM20.4978 97.0623C19.8909 98.1022 19.8258 98.9896 20.2916 99.8715C21.2605 101.706 23.608 100.272 23.1084 98.1513C22.9813 97.6106 22.717 97.028 22.521 96.857C21.9603 96.3675 20.8369 96.4814 20.4978 97.0623ZM30.7978 97.5065C30.2228 98.6699 30.4153 99.7415 31.3134 100.379C32.1958 101.005 33.145 100.461 33.3854 99.1916C33.8263 96.8612 31.7763 95.5258 30.7978 97.5065ZM201.749 97.3299C201.749 97.5628 201.892 97.871 202.068 98.015C202.244 98.1589 202.387 98.0861 202.387 97.8532C202.387 97.6203 202.244 97.3121 202.068 97.1682C201.892 97.0242 201.749 97.097 201.749 97.3299ZM199.423 97.6974C199.352 97.8723 199.32 98.5213 199.353 99.1399C199.394 99.9244 199.283 100.2 198.986 100.048C198.751 99.9291 198.639 99.6611 198.736 99.4524C198.834 99.2441 198.761 99.0734 198.575 99.0734C198.055 99.0734 198.174 100.338 198.72 100.616C198.985 100.751 199.4 100.645 199.64 100.38C199.975 100.011 200.121 100.049 200.265 100.544C200.439 101.147 200.094 101.401 199.363 101.209C199.192 101.165 199.31 101.504 199.623 101.964C200.274 102.917 199.98 103.365 199.035 102.861C198.684 102.674 198.582 102.507 198.808 102.49C199.307 102.454 198.004 100.578 197.235 100.224C196.847 100.046 196.752 100.184 196.867 100.763C196.951 101.191 197.361 101.655 197.777 101.794C198.28 101.961 198.472 102.257 198.351 102.676C198.251 103.024 198.327 103.331 198.522 103.36C198.716 103.389 199.051 103.437 199.265 103.466C199.479 103.495 199.811 103.934 200.001 104.442C200.232 105.056 200.489 105.248 200.77 105.018C201.002 104.828 201.092 104.457 200.969 104.194C200.847 103.932 200.63 103.813 200.487 103.93C200.344 104.047 200.264 103.526 200.308 102.773C200.353 102.019 200.516 101.497 200.67 101.614C200.824 101.73 200.91 101.986 200.861 102.182C200.701 102.816 201.536 105.387 201.824 105.151C201.977 105.025 201.879 104.47 201.606 103.918C201.033 102.757 200.97 102.295 201.437 102.679C201.975 103.119 201.635 101.882 201.008 101.115C200.449 100.431 200.453 100.386 201.136 99.9016C201.746 99.4693 201.818 99.4947 201.647 100.083C201.337 101.158 202.312 100.912 202.713 99.8144C203.018 98.9794 203.007 98.9494 202.627 99.5701C202.221 100.232 202.17 100.232 201.844 99.5701C201.564 99.001 201.414 98.9659 201.079 99.391C200.515 100.109 200.043 100.06 200.262 99.3067C200.377 98.9075 200.286 98.7711 200 98.9168C199.685 99.0768 199.61 98.8905 199.734 98.2601C199.9 97.4158 199.691 97.0369 199.423 97.6974ZM200.791 97.8033C200.791 98.0361 200.943 98.2266 201.129 98.2266C201.315 98.2266 201.378 98.0361 201.27 97.8033C201.161 97.5704 201.009 97.3799 200.932 97.3799C200.854 97.3799 200.791 97.5704 200.791 97.8033ZM207.336 97.8033C207.444 98.0361 207.596 98.2266 207.674 98.2266C207.751 98.2266 207.815 98.0361 207.815 97.8033C207.815 97.5704 207.662 97.3799 207.477 97.3799C207.291 97.3799 207.227 97.5704 207.336 97.8033ZM205.422 98.6454C205.311 98.885 205.439 98.9562 205.723 98.8118C206.276 98.5302 206.377 98.2266 205.918 98.2266C205.753 98.2266 205.53 98.4151 205.422 98.6454ZM134.261 99.1509C134.354 99.3486 134.563 99.4011 134.726 99.2669C135.144 98.9248 135.097 98.791 134.559 98.791C134.303 98.791 134.169 98.9532 134.261 99.1509ZM131.79 100.238C131.385 100.923 131.4 100.932 131.99 100.358C132.342 100.016 132.689 99.6827 132.762 99.6166C132.835 99.5506 132.745 99.4968 132.562 99.4968C132.378 99.4968 132.031 99.8305 131.79 100.238ZM202.869 100.76C202.777 100.958 202.843 101.612 203.016 102.213C203.227 102.953 203.222 103.307 202.999 103.307C202.817 103.307 202.767 103.518 202.887 103.776C203.042 104.108 203.177 104.091 203.353 103.715C203.531 103.331 203.645 103.406 203.765 103.987C203.856 104.428 203.883 104.218 203.824 103.519C203.765 102.82 203.688 102.154 203.653 102.037C203.617 101.921 203.609 101.668 203.634 101.477C203.659 101.284 203.533 101.248 203.353 101.396C203.173 101.543 203.026 101.44 203.026 101.166C203.026 100.886 203.29 100.76 203.629 100.877C203.96 100.993 204.4 100.949 204.606 100.78C204.814 100.609 204.549 100.457 204.008 100.437C203.474 100.417 202.962 100.562 202.869 100.76ZM130.391 101.197C130.28 101.434 130.068 101.527 129.919 101.405C129.77 101.283 129.438 101.461 129.181 101.801C128.924 102.142 128.646 102.329 128.562 102.218C128.478 102.107 128.228 102.307 128.006 102.662C127.73 103.103 127.715 103.307 127.961 103.307C128.158 103.307 128.319 103.08 128.319 102.803C128.319 102.526 128.524 102.668 128.774 103.121C129.223 103.931 129.229 103.93 129.173 103.096C129.134 102.506 129.311 102.249 129.756 102.249C130.134 102.249 130.38 102.516 130.361 102.904C130.342 103.265 130.595 103.586 130.922 103.619C131.466 103.674 131.474 103.621 131.011 103.007C130.732 102.637 130.574 101.982 130.659 101.551C130.828 100.69 130.704 100.526 130.391 101.197ZM195.74 101.493C195.927 101.792 196.182 102.037 196.307 102.037C196.432 102.037 196.534 101.792 196.534 101.493C196.534 101.193 196.279 100.949 195.967 100.949C195.54 100.949 195.484 101.084 195.74 101.493ZM204.404 102.561C204.384 103.088 204.437 103.28 204.522 102.987C204.607 102.695 204.827 102.578 205.01 102.729C205.195 102.881 205.281 102.752 205.202 102.44C204.96 101.478 204.441 101.557 204.404 102.561ZM126.563 103.307C126.454 103.54 126.509 103.731 126.685 103.731C126.861 103.731 127.093 103.54 127.201 103.307C127.31 103.074 127.255 102.884 127.08 102.884C126.904 102.884 126.672 103.074 126.563 103.307ZM126.827 104.155C126.295 104.44 126.18 104.753 126.335 105.504C126.52 106.399 126.548 106.411 126.667 105.647C126.739 105.187 127.032 104.573 127.319 104.284C127.925 103.672 127.794 103.638 126.827 104.155ZM198.059 104.115C198.157 104.326 197.95 104.399 197.599 104.277C196.853 104.018 196.759 103.731 197.42 103.731C197.673 103.731 197.96 103.903 198.059 104.115ZM124.627 104.481C124.736 104.625 125.05 104.787 125.325 104.84C125.599 104.894 125.734 104.819 125.625 104.674C125.516 104.53 125.203 104.368 124.928 104.315C124.654 104.261 124.518 104.336 124.627 104.481ZM129.314 104.94C129.292 105.279 129.073 105.411 128.781 105.263C128.509 105.124 128.363 105.176 128.457 105.378C128.736 105.976 129.811 106.199 130.279 105.756C130.615 105.437 130.592 105.396 130.175 105.572C129.838 105.716 129.583 105.532 129.493 105.083C129.41 104.663 129.335 104.604 129.314 104.94ZM197.537 105.647C197.438 105.777 197.26 105.542 197.14 105.125C196.967 104.522 197.003 104.473 197.319 104.888C197.537 105.175 197.635 105.517 197.537 105.647ZM202.387 104.93C202.387 105.125 202.596 105.283 202.852 105.283C203.108 105.283 203.243 105.125 203.152 104.93C203.062 104.736 202.853 104.578 202.688 104.578C202.522 104.578 202.387 104.736 202.387 104.93ZM123.849 105.424C124.113 105.65 124.203 105.838 124.05 105.841C123.897 105.845 123.946 106.128 124.16 106.469C124.374 106.811 124.715 107.049 124.918 106.998C125.12 106.948 125.248 107.218 125.2 107.599C125.153 107.98 125.353 108.413 125.645 108.561C126.088 108.787 126.109 108.726 125.771 108.186C125.483 107.726 125.473 107.541 125.736 107.541C125.938 107.541 126.188 107.832 126.291 108.187C126.434 108.682 126.58 108.72 126.915 108.352C127.159 108.084 127.716 107.991 128.171 108.142C128.839 108.365 128.972 108.275 128.894 107.661C128.769 106.677 128.232 105.878 127.886 106.157C127.735 106.278 127.803 106.533 128.036 106.725C128.269 106.915 128.36 107.205 128.237 107.367C128.115 107.529 127.796 107.421 127.528 107.126C127.14 106.699 126.945 106.697 126.563 107.118C126.168 107.553 126.084 107.513 126.084 106.888C126.084 106.471 125.99 106.255 125.874 106.409C125.758 106.562 125.471 106.475 125.235 106.216C124.918 105.866 124.807 105.874 124.807 106.244C124.807 106.519 124.67 106.632 124.502 106.494C124.334 106.357 124.277 105.964 124.376 105.622C124.495 105.213 124.354 105.003 123.963 105.007C123.464 105.013 123.446 105.078 123.849 105.424ZM131.516 105.835C131.142 106.148 131.194 106.218 131.755 106.162C132.148 106.123 132.469 105.941 132.469 105.757C132.469 105.316 132.099 105.346 131.516 105.835ZM197.39 106.406C197.505 106.254 197.598 106.246 197.598 106.387C197.598 107.151 196.943 107.007 196.639 106.177C196.323 105.314 196.333 105.29 196.734 105.947C196.981 106.351 197.276 106.557 197.39 106.406ZM194.769 106.605C194.538 106.706 194.198 106.589 194.012 106.342C193.775 106.028 193.9 105.973 194.431 106.157C194.863 106.307 195.008 106.499 194.769 106.605ZM39.9988 106.889C39.1024 107.722 38.4875 109.817 38.7432 111.168C39.0628 112.856 40.4369 114.315 41.7075 114.315C43.1337 114.315 43.9178 113.726 44.51 112.207C45.2446 110.323 45.1083 108.9 44.0589 107.509C42.9973 106.101 41.1507 105.819 39.9988 106.889ZM122.889 106.911C122.458 107.599 122.796 107.743 123.484 107.164C123.747 106.943 123.793 106.698 123.6 106.54C123.426 106.397 123.106 106.564 122.889 106.911ZM198.435 107.381C198.475 107.744 198.419 107.924 198.31 107.78C198.201 107.635 198.079 107.219 198.039 106.855C197.998 106.491 198.055 106.312 198.164 106.456C198.273 106.601 198.395 107.017 198.435 107.381ZM120.976 107.143C120.976 107.389 121.12 107.474 121.295 107.33C121.471 107.186 121.614 106.984 121.614 106.881C121.614 106.778 121.471 106.694 121.295 106.694C121.12 106.694 120.976 106.896 120.976 107.143ZM199.556 107.263C199.36 107.575 199.307 107.987 199.437 108.177C199.567 108.368 199.487 108.381 199.259 108.206C198.939 107.962 198.93 107.752 199.218 107.292C199.424 106.963 199.664 106.694 199.752 106.694C199.839 106.694 199.751 106.95 199.556 107.263ZM127.361 107.284C127.361 107.376 127.138 107.564 126.866 107.703C126.581 107.847 126.453 107.776 126.565 107.537C126.753 107.134 127.361 106.941 127.361 107.284ZM197.279 108.399C197.279 108.621 196.992 108.477 196.641 108.078C196.289 107.679 196.002 107.294 196.002 107.221C196.002 107.147 196.289 107.292 196.641 107.541C196.992 107.791 197.279 108.176 197.279 108.399ZM51.936 108.422C51.1167 109.055 51.217 110.875 52.0956 111.315C52.5046 111.52 53.0543 111.508 53.3726 111.287C54.1242 110.765 54.0871 108.952 53.3139 108.403C52.579 107.881 52.6371 107.88 51.936 108.422ZM121.784 108.41C121.884 108.623 122.31 108.761 122.732 108.714C123.675 108.611 123.495 108.288 122.407 108.134C121.965 108.072 121.684 108.196 121.784 108.41ZM22.6566 109.003C22.445 109.341 22.3211 109.96 22.3814 110.379C22.5305 111.416 23.934 111.633 24.4493 110.698C25.3094 109.139 23.5895 107.512 22.6566 109.003ZM199.2 109.223C199.421 108.75 199.474 108.811 199.435 109.496C199.372 110.612 198.534 110.392 197.936 109.102L197.508 108.176L198.211 109.006C198.806 109.709 198.958 109.742 199.2 109.223ZM11.9104 109.426C11.6814 110.217 12.0157 110.928 12.6159 110.928C13.2685 110.928 13.5753 109.654 13.0329 109.198C12.3979 108.665 12.1137 108.723 11.9104 109.426ZM30.3776 109.309C29.9425 109.886 30.4233 110.928 31.1244 110.928C31.7638 110.928 32.0046 110.12 31.5717 109.428C31.1043 108.681 30.869 108.658 30.3776 109.309ZM122.634 110.293C122.641 110.992 122.712 111.226 122.793 110.814C122.875 110.403 122.869 109.831 122.782 109.544C122.694 109.258 122.628 109.595 122.634 110.293ZM124.488 109.658C124.488 109.891 124.64 110.082 124.826 110.082C125.012 110.082 125.075 109.891 124.967 109.658C124.858 109.425 124.706 109.235 124.629 109.235C124.551 109.235 124.488 109.425 124.488 109.658ZM125.624 109.619C125.525 109.83 125.732 109.903 126.084 109.781C126.829 109.522 126.923 109.235 126.263 109.235C126.009 109.235 125.722 109.408 125.624 109.619ZM143.643 110.937C143.643 111.174 145.851 117.271 148.549 124.485L153.456 137.602H142.803H132.15V136.525C132.15 134.233 131.049 129.582 129.497 125.324C128.606 122.879 127.869 120.712 127.859 120.51C127.843 120.195 142.738 110.643 143.404 110.541C143.536 110.521 143.643 110.699 143.643 110.937ZM198.237 110.762C198.237 111.113 197.617 111.311 197.475 111.006C197.382 110.808 197.516 110.646 197.772 110.646C198.028 110.646 198.237 110.698 198.237 110.762ZM110.882 114.973C110.99 115.349 110.937 115.519 110.756 115.371C110.582 115.229 110.44 114.933 110.44 114.714C110.44 114.105 110.669 114.239 110.882 114.973ZM112.1 116.823C111.965 117.291 111.87 117.244 111.684 116.613C111.312 115.355 111.357 115.078 111.837 115.672C112.078 115.972 112.197 116.489 112.1 116.823ZM108.099 116.221C108.099 116.493 107.932 116.715 107.727 116.715C107.522 116.715 107.354 116.493 107.354 116.221C107.354 115.949 107.522 115.727 107.727 115.727C107.932 115.727 108.099 115.949 108.099 116.221ZM30.99 122.244C29.8914 123.454 29.7812 125.383 30.7275 126.842L31.5273 128.076L41.9134 128.198C51.86 128.315 52.3082 128.355 52.4959 129.14C52.6039 129.59 53.062 130.345 53.5144 130.817C54.2873 131.623 54.7879 131.675 61.827 131.675C70.1558 131.675 70.6995 131.52 71.6452 128.877C72.4232 126.703 72.2674 124.696 71.1976 123.108L70.2663 121.725L50.9689 121.609C32.8921 121.501 31.6285 121.541 30.99 122.244ZM78.8336 123.077C77.5301 123.695 77.1201 126.362 78.1405 127.587C78.9964 128.614 80.6068 128.488 81.2099 127.346C81.94 125.964 81.8177 124.654 80.8657 123.661C80.0094 122.767 79.6841 122.674 78.8336 123.077ZM222.812 124.038L223.485 125.292L221.554 128.515C219.363 132.172 217.433 137.174 216.415 141.836C215.451 146.252 215.189 156.62 215.914 161.708C216.193 163.673 216.372 165.347 216.31 165.428C216.13 165.668 214.894 161.325 214.295 158.348C213.502 154.398 213.512 144.408 214.314 140.354C215.463 134.547 219.146 125.796 221.486 123.313C222.124 122.635 222.03 122.583 222.812 124.038ZM5.70075 123.877C5.14077 124.772 5.69947 125.959 6.68088 125.959C7.66228 125.959 8.22099 124.772 7.66101 123.877C7.43018 123.509 6.98896 123.207 6.68088 123.207C6.37279 123.207 5.93157 123.509 5.70075 123.877ZM19.0014 123.895C18.883 124.303 18.981 124.882 19.2233 125.203C19.8337 126.013 20.7848 125.428 20.6654 124.317C20.5428 123.179 19.2996 122.863 19.0014 123.895ZM88.6097 123.851C87.983 124.682 87.9708 124.941 88.5123 125.924C89.3443 127.433 91.2021 125.742 90.4508 124.159C89.9713 123.15 89.2319 123.025 88.6097 123.851ZM121.386 129.875C122.018 131.68 122.667 134.156 122.829 135.379C123.112 137.518 123.096 137.602 122.405 137.602C121.84 137.602 121.642 137.294 121.483 136.168C121.248 134.51 119.781 129.537 119.352 128.944C118.717 128.067 119.099 126.795 120.048 126.627C120.152 126.609 120.754 128.07 121.386 129.875ZM116.012 132.222C116.423 133.454 116.906 135.169 117.086 136.032L117.413 137.602H111.479C108.215 137.602 105.624 137.497 105.721 137.368C106.05 136.933 114.748 130.041 115.007 130.011C115.149 129.994 115.601 130.989 116.012 132.222ZM74.3107 135.393C73.8423 135.471 73.094 135.983 72.6473 136.532C71.0932 138.443 71.1624 141.117 72.8197 143.17C74.696 145.495 77.8414 144.303 78.5089 141.015C79.1896 137.664 77.1419 134.922 74.3107 135.393ZM15.5662 136.541C14.5886 137.262 13.9013 139.559 14.1963 141.118C14.5315 142.888 15.8063 144.145 17.2672 144.145C20.1581 144.145 21.5297 138.839 19.1486 136.867C18.1305 136.024 16.4723 135.873 15.5662 136.541ZM36.8509 137.062C34.6758 137.77 34.2617 141.85 36.2434 143.048C36.7992 143.384 41.1475 143.529 50.6088 143.529H64.1767L64.9602 142.49C65.3912 141.918 65.744 141.147 65.744 140.776C65.744 139.425 64.7868 137.685 63.7904 137.224C62.778 136.756 38.242 136.608 36.8509 137.062ZM28.6903 138.051C27.8389 139.18 28.0058 140.582 29.0872 141.384C29.8687 141.964 30.0006 141.951 30.6037 141.227C31.4666 140.191 31.4443 138.664 30.5542 137.838C29.6379 136.986 29.4795 137.005 28.6903 138.051ZM2.47016 138.667C1.98967 140.066 2.42802 141.148 3.54766 141.328C4.55269 141.489 5.16024 140.535 5.02775 139.003C4.94155 138.006 4.75798 137.793 3.88959 137.681C3.03238 137.572 2.78846 137.741 2.47016 138.667ZM164.106 143.142C164.738 143.56 165.725 144.615 166.301 145.485C168.378 148.621 168.737 151.603 167.467 155.173C166.165 158.835 164.186 160.465 161.04 160.465C157.087 160.465 154.179 156.49 154.179 151.086C154.179 144.297 159.468 140.064 164.106 143.142ZM158.649 145.555C156.965 146.779 156.094 148.745 156.096 151.319C156.1 158.117 162.33 160.469 165.465 154.857C166.273 153.411 166.326 150.23 165.574 148.326C164.372 145.283 160.921 143.902 158.649 145.555ZM143.817 147.311C143.716 147.528 143.755 147.805 143.904 147.927C144.053 148.05 144.176 147.872 144.176 147.533C144.176 146.819 144.075 146.757 143.817 147.311ZM19.3201 148.643C17.9405 150.817 18.2924 153.517 20.1188 154.769C22.0417 156.088 24.2504 154.15 24.23 151.162C24.2057 147.59 21.0239 145.957 19.3201 148.643ZM55.5781 147.713C53.3701 148.003 52.335 149.037 52.335 150.953C52.335 152.329 53.7625 154.421 54.9332 154.762C55.8957 155.042 55.912 155.088 55.6646 156.804C54.854 162.419 55.2084 162.785 61.8052 163.148C64.586 163.301 68.1694 163.427 69.7679 163.428C72.4114 163.429 72.7508 163.335 73.5192 162.391C75.2356 160.281 74.0932 156.715 71.6646 156.602C71.0421 156.572 70.2455 156.501 69.8943 156.443C69.5432 156.384 68.9327 156.291 68.5375 156.235C67.9769 156.155 67.9417 156.091 68.3766 155.939C68.813 155.788 68.8647 155.574 68.6154 154.956C68.3925 154.404 68.4079 154.074 68.6658 153.863C68.8807 153.687 68.9493 153.745 68.8299 154.001C68.7169 154.243 68.9461 154.549 69.3391 154.68C70.008 154.903 69.9987 154.854 69.1964 153.925C68.7246 153.378 68.4254 152.816 68.5311 152.676C68.6371 152.535 68.5321 152.421 68.298 152.421C68.064 152.421 67.9558 152.31 68.0576 152.175C68.1595 152.04 68.6502 152.269 69.1482 152.683L70.054 153.436L69.2801 152.293C68.8542 151.665 68.6205 151.15 68.7603 151.15C68.9002 151.15 68.8267 150.85 68.5972 150.483C68.2511 149.93 68.2578 149.749 68.6377 149.429C68.8899 149.216 69.2711 149.128 69.485 149.231C70.1188 149.539 70.2506 148.753 69.6699 148.129C69.3749 147.811 69.2319 147.77 69.3522 148.036C69.4729 148.303 69.3449 148.637 69.0681 148.777C68.3571 149.139 68.3402 149.123 68.5132 148.246C68.6601 147.5 68.3724 147.458 63.1356 147.453C60.0927 147.45 56.6917 147.567 55.5781 147.713ZM142.392 148.01C142.407 148.503 142.483 148.604 142.584 148.266C142.677 147.961 142.665 147.595 142.559 147.455C142.453 147.314 142.378 147.564 142.392 148.01ZM147.162 148.388C146.939 148.743 146.524 149.021 146.238 149.007C145.886 148.989 145.951 148.856 146.437 148.597C146.832 148.386 147.155 147.986 147.155 147.707C147.155 147.427 147.247 147.321 147.361 147.471C147.473 147.621 147.384 148.033 147.162 148.388ZM36.9308 149.491C36.0901 150.14 36.2067 152.258 37.1271 153.057C38.7722 154.487 40.6971 151.774 39.3935 149.863C38.7767 148.959 37.8084 148.813 36.9308 149.491ZM147.635 149.962C147.607 150.473 147.396 150.974 147.165 151.076C146.935 151.177 146.817 151.093 146.902 150.888C146.987 150.683 147.146 150.182 147.255 149.774C147.528 148.76 147.698 148.844 147.635 149.962ZM148.752 149.88C148.752 150.113 148.599 150.304 148.413 150.304C148.228 150.304 148.164 150.113 148.273 149.88C148.381 149.647 148.533 149.457 148.611 149.457C148.688 149.457 148.752 149.647 148.752 149.88ZM68.7683 150.285C68.8721 150.508 69.168 150.583 69.4257 150.451C70.0856 150.116 70.008 149.88 69.237 149.88C68.8756 149.88 68.6645 150.062 68.7683 150.285ZM148.726 151.705C148.708 152.065 148.655 152.058 148.54 151.677C148.331 150.991 147.794 151.425 147.794 152.279C147.794 152.688 147.974 152.843 148.273 152.691C148.765 152.44 148.952 153.053 148.497 153.426C147.733 154.052 147.03 152.01 147.762 151.294C148.322 150.747 148.765 150.935 148.726 151.705ZM142.813 151.68C142.687 151.971 142.701 152.068 142.845 151.895C142.988 151.722 143.334 151.818 143.614 152.107C144.064 152.572 144.072 152.547 143.684 151.891C143.162 151.008 143.11 150.996 142.813 151.68ZM0.61494 152.421C0.61494 152.654 0.758607 152.844 0.9342 152.844C1.10979 152.844 1.25346 152.654 1.25346 152.421C1.25346 152.188 1.10979 151.997 0.9342 151.997C0.758607 151.997 0.61494 152.188 0.61494 152.421ZM144.474 152.35C144.384 152.544 144.513 152.703 144.761 152.703C145.009 152.703 145.138 152.544 145.047 152.35C144.957 152.156 144.828 151.997 144.761 151.997C144.694 151.997 144.565 152.156 144.474 152.35ZM146.071 153.197C145.98 153.391 146.109 153.55 146.357 153.55C146.605 153.55 146.734 153.391 146.643 153.197C146.553 153.003 146.424 152.844 146.357 152.844C146.29 152.844 146.161 153.003 146.071 153.197ZM149.034 155.349C149.009 156.066 148.947 156.188 148.851 155.702C148.77 155.295 148.571 154.961 148.409 154.961C148.246 154.961 148.113 154.802 148.113 154.608C148.113 154.414 148.329 154.255 148.592 154.255C148.903 154.255 149.058 154.637 149.034 155.349ZM98.947 156.231C98.6593 156.478 98.6197 156.644 98.8483 156.648C99.0574 156.652 99.3173 156.464 99.4259 156.231C99.6707 155.705 99.5603 155.705 98.947 156.231ZM103.257 156.231C103.148 156.464 103.158 156.865 103.278 157.123C103.425 157.439 103.248 157.509 102.738 157.339C102.321 157.2 102.151 157.191 102.361 157.321C102.571 157.45 102.702 157.782 102.653 158.058C102.604 158.334 102.624 158.417 102.697 158.242C102.771 158.067 102.972 157.925 103.143 157.925C103.314 157.925 103.372 158.102 103.271 158.319C103.17 158.536 103.219 158.821 103.382 158.954C103.543 159.087 103.615 159.624 103.54 160.148C103.414 161.025 103.426 161.034 103.69 160.253C103.861 159.747 103.858 159.209 103.681 158.915C103.496 158.608 103.512 158.32 103.721 158.148C103.944 157.966 103.953 157.616 103.748 157.108C103.578 156.687 103.53 156.222 103.641 156.075C103.752 155.928 103.755 155.808 103.648 155.808C103.541 155.808 103.366 155.998 103.257 156.231ZM104.773 156.155C103.984 156.304 103.911 156.55 104.374 157.501C104.635 158.036 104.685 158.01 104.689 157.344C104.693 156.682 104.774 156.639 105.18 157.086C105.756 157.72 105.969 157.539 105.691 156.655C105.576 156.288 105.188 156.077 104.773 156.155ZM106.172 156.143C106.042 156.42 106.083 156.983 106.263 157.392C106.443 157.802 106.594 157.919 106.6 157.653C106.605 157.387 106.997 157.041 107.471 156.883C108.128 156.664 108.225 156.509 107.88 156.226C107.614 156.008 107.273 156.028 107.05 156.273C106.794 156.554 106.628 156.519 106.539 156.164C106.438 155.761 106.352 155.756 106.172 156.143ZM108.602 156.938C108.669 158.013 109.163 158.323 109.163 157.29C109.163 156.94 109.403 156.655 109.696 156.655C110.416 156.655 109.949 156.088 109.165 156.012C108.696 155.966 108.556 156.196 108.602 156.938ZM128.114 157.787C128.636 158.169 128.646 158.253 128.197 158.482C127.836 158.666 127.539 158.34 127.188 157.381C126.891 156.564 126.858 156.286 127.106 156.685C127.334 157.052 127.788 157.547 128.114 157.787ZM113.572 157.11C113.509 157.36 113.348 157.544 113.214 157.518C112.847 157.447 112.037 158.638 112.037 159.25C112.037 159.664 111.95 159.672 111.659 159.287C111.451 159.011 111.343 158.723 111.42 158.646C113.595 156.445 113.77 156.32 113.572 157.11ZM119.623 157.506C119.398 157.982 119.169 158.147 119.102 157.88C119.036 157.618 119.18 157.238 119.42 157.036C120.049 156.507 120.07 156.556 119.623 157.506ZM130.914 157.395C131.311 158.067 131.299 158.082 130.793 157.556C130.486 157.236 130.234 156.902 130.234 156.815C130.234 156.466 130.497 156.69 130.914 157.395ZM133.076 157.951C132.468 158.449 132.325 158.095 132.836 157.359C133.086 157 133.318 156.92 133.386 157.169C133.451 157.406 133.312 157.757 133.076 157.951ZM134.303 157.602C134.343 158.316 134.287 158.399 134.073 157.94C133.916 157.604 133.859 157.178 133.946 156.992C134.187 156.475 134.244 156.574 134.303 157.602ZM137.835 157.724C137.737 157.854 137.558 157.619 137.438 157.202C137.265 156.599 137.302 156.55 137.617 156.965C137.835 157.252 137.933 157.594 137.835 157.724ZM144.799 157.764C144.84 158.128 144.783 158.307 144.674 158.163C144.565 158.018 144.443 157.603 144.403 157.238C144.363 156.875 144.419 156.695 144.528 156.84C144.637 156.984 144.759 157.4 144.799 157.764ZM148.154 157.395C148.551 158.067 148.54 158.082 148.033 157.556C147.501 157.002 147.332 156.655 147.595 156.655C147.661 156.655 147.913 156.988 148.154 157.395ZM122.709 157.967C122.962 158.326 122.864 158.324 122.333 157.962C121.614 157.471 121.416 157.749 121.603 158.983C121.639 159.216 121.556 159.259 121.42 159.078C121.284 158.898 121.13 158.385 121.079 157.94C121.007 157.312 121.142 157.169 121.676 157.305C122.055 157.402 122.52 157.7 122.709 157.967ZM124.807 157.518C125.3 157.769 125.983 157.674 126.403 157.296C126.805 156.935 126.819 156.975 126.486 157.54C126.268 157.911 126.196 158.37 126.326 158.561C126.456 158.751 126.384 158.77 126.164 158.603C125.818 158.339 125.642 158.739 125.706 159.639C125.715 159.767 125.379 159.872 124.959 159.872C124.373 159.872 124.275 159.746 124.538 159.327C124.726 159.026 124.992 158.873 125.129 158.985C125.266 159.098 125.467 158.884 125.576 158.51C125.715 158.029 125.634 157.901 125.3 158.071C125.04 158.203 124.741 158.126 124.636 157.899C124.53 157.673 124.32 157.589 124.169 157.713C124.017 157.837 123.811 157.762 123.71 157.545C123.558 157.219 124.189 157.203 124.807 157.518ZM138.854 157.501C138.854 157.734 138.791 157.925 138.714 157.925C138.636 157.925 138.484 157.734 138.376 157.501C138.267 157.268 138.331 157.078 138.516 157.078C138.702 157.078 138.854 157.268 138.854 157.501ZM24.2734 158.998C21.7713 162.777 24.6712 168.181 28.1632 166.246C31.6607 164.308 30.4775 157.501 26.6432 157.501C25.4642 157.501 25.1204 157.719 24.2734 158.998ZM100.969 158.118C100.969 158.457 101.089 158.636 101.235 158.516C101.381 158.396 101.501 158.119 101.501 157.9C101.501 157.68 101.381 157.501 101.235 157.501C101.089 157.501 100.969 157.779 100.969 158.118ZM107.761 158.124C107.664 159.001 107.248 159.468 107.248 158.701C107.248 158.147 107.519 157.501 107.752 157.501C107.795 157.501 107.799 157.782 107.761 158.124ZM114.31 157.884C114.068 158.087 113.969 158.465 114.09 158.724C114.21 158.983 114.157 159.195 113.971 159.195C113.597 159.195 113.511 158.227 113.846 157.784C113.963 157.628 114.214 157.504 114.405 157.508C114.595 157.512 114.552 157.68 114.31 157.884ZM118.573 158.714C118.715 159.688 117.996 159.993 117.593 159.129C117.452 158.827 117.506 158.755 117.734 158.943C117.97 159.136 118.103 158.907 118.103 158.302C118.103 157.185 118.387 157.434 118.573 158.714ZM120.058 158.461C119.742 158.876 119.706 158.827 119.879 158.224C119.999 157.807 120.177 157.572 120.276 157.702C120.374 157.832 120.276 158.174 120.058 158.461ZM7.58247 158.704C6.15218 159.652 5.64839 161.129 6.06822 163.146C6.42419 164.855 7.28556 165.812 8.83971 166.224C9.68192 166.448 10.0079 166.279 10.8185 165.204C13.3285 161.876 10.716 156.628 7.58247 158.704ZM44.6252 158.645C43.8121 159.899 43.6968 160.858 44.176 162.379C44.9809 164.934 47.595 164.887 48.3893 162.305C48.7581 161.107 48.7265 160.822 48.0831 159.553C47.2157 157.84 45.4483 157.376 44.6252 158.645ZM105.674 158.217C105.686 158.406 105.82 158.941 105.971 159.407C106.235 160.223 106.246 160.22 106.268 159.326C106.28 158.816 106.146 158.28 105.971 158.136C105.795 157.992 105.662 158.029 105.674 158.217ZM136.638 158.954C136.455 159.246 136.376 159.578 136.463 159.692C136.549 159.807 136.404 159.901 136.139 159.901C135.712 159.901 135.712 159.823 136.14 159.196C136.405 158.808 136.513 158.333 136.381 158.14C136.249 157.947 136.327 157.932 136.555 158.106C136.849 158.33 136.873 158.579 136.638 158.954ZM113.105 159.001C113.001 159.359 113.041 159.623 113.195 159.585C114.127 159.36 114.368 159.661 113.73 160.253C112.916 161.009 111.001 160.839 110.83 159.996C110.758 159.637 110.814 159.573 110.975 159.83C111.12 160.063 111.734 160.279 112.34 160.31C113.279 160.358 113.363 160.29 112.91 159.85C112.505 159.458 112.467 159.217 112.75 158.841C113.247 158.182 113.331 158.22 113.105 159.001ZM141.288 158.877C141.253 159.169 141.054 159.788 140.847 160.253C140.517 160.995 140.469 161.008 140.46 160.359C140.455 159.952 140.594 159.618 140.77 159.618C140.946 159.618 141.072 159.476 141.052 159.301C140.993 158.81 141.075 158.348 141.221 158.348C141.293 158.348 141.323 158.587 141.288 158.877ZM146.517 158.565C146.517 158.606 146.196 159.003 145.804 159.447C145.367 159.941 145.243 159.992 145.482 159.579C145.697 159.208 145.802 158.812 145.716 158.697C145.629 158.583 145.774 158.489 146.038 158.489C146.301 158.489 146.517 158.523 146.517 158.565ZM149.869 158.772C149.977 159.004 149.914 159.195 149.728 159.195C149.542 159.195 149.39 159.004 149.39 158.772C149.39 158.539 149.453 158.348 149.531 158.348C149.608 158.348 149.76 158.539 149.869 158.772ZM110.277 159.512C110.218 159.92 110.157 160.444 110.141 160.677C110.125 160.91 109.978 160.821 109.815 160.479C109.628 160.086 109.643 159.659 109.859 159.315C110.315 158.587 110.404 158.63 110.277 159.512ZM116.484 160.289C116.117 160.876 114.591 160.955 114.591 160.387C114.591 160.17 114.759 160.129 114.964 160.298C115.212 160.501 115.272 160.377 115.142 159.927C114.898 159.084 115.527 158.757 116.251 159.35C116.618 159.652 116.694 159.954 116.484 160.289ZM120.497 159.195C120.388 159.428 120.476 159.618 120.691 159.618C120.906 159.618 120.996 159.733 120.891 159.872C120.604 160.253 119.979 159.621 120.191 159.166C120.292 158.949 120.447 158.772 120.535 158.772C120.622 158.772 120.606 158.962 120.497 159.195ZM123.602 160.405C123.476 160.838 123.37 160.886 123.285 160.549C123.215 160.27 123.017 160.042 122.846 160.042C122.675 160.042 122.632 160.25 122.751 160.506C122.884 160.791 122.747 160.913 122.397 160.823C122.083 160.743 121.768 160.391 121.696 160.042C121.582 159.487 121.607 159.485 121.892 160.03C122.173 160.567 122.248 160.553 122.429 159.927C122.544 159.527 122.768 159.305 122.925 159.434C123.082 159.563 123.213 159.419 123.216 159.114C123.219 158.688 123.286 158.698 123.505 159.156C123.662 159.485 123.705 160.047 123.602 160.405ZM126.801 159.83C126.717 160.412 126.521 160.888 126.366 160.888C125.999 160.888 126.01 160.592 126.415 159.59C126.861 158.484 126.984 158.56 126.801 159.83ZM129.05 159.618C128.953 160.11 129.04 160.465 129.258 160.465C129.465 160.465 129.551 160.288 129.45 160.071C129.349 159.854 129.448 159.538 129.671 159.368C129.893 159.198 129.968 159.215 129.838 159.406C129.708 159.596 129.735 159.965 129.898 160.225C130.107 160.56 129.803 160.714 128.857 160.75C127.875 160.789 127.69 160.71 128.159 160.452C128.51 160.259 128.672 160.088 128.519 160.071C128.366 160.055 128.419 159.756 128.638 159.407C129.166 158.563 129.25 158.606 129.05 159.618ZM138.535 159.029C138.535 159.379 137.915 159.577 137.773 159.272C137.681 159.075 137.815 158.913 138.07 158.913C138.326 158.913 138.535 158.965 138.535 159.029ZM139.97 159.19C140.081 159.43 139.953 159.501 139.669 159.357C139.116 159.075 139.015 158.772 139.474 158.772C139.64 158.772 139.862 158.96 139.97 159.19ZM144.428 159.166C144.529 159.382 144.489 159.66 144.34 159.782C144.191 159.905 144.069 159.727 144.069 159.388C144.069 158.674 144.17 158.612 144.428 159.166ZM80.6122 159.86C80.3364 160.226 80.1106 160.673 80.1106 160.853C80.1106 161.225 81.1779 162.582 81.4697 162.582C81.7606 162.582 82.6647 161.301 82.6647 160.888C82.6647 160.418 81.7424 159.195 81.3877 159.195C81.2373 159.195 80.8884 159.494 80.6122 159.86ZM115.549 159.805C115.549 160.168 115.692 160.465 115.868 160.465C116.043 160.465 116.187 160.286 116.187 160.067C116.187 159.847 116.043 159.551 115.868 159.407C115.692 159.263 115.549 159.442 115.549 159.805ZM120.437 160.584C121.415 160.746 121.408 160.756 120.258 160.821C119.204 160.88 119.065 160.774 119.097 159.936C119.124 159.259 119.176 159.191 119.277 159.699C119.362 160.13 119.825 160.482 120.437 160.584ZM127.604 160.046C127.38 160.522 127.151 160.687 127.084 160.42C127.018 160.158 127.161 159.778 127.402 159.576C128.031 159.048 128.052 159.096 127.604 160.046ZM131.672 160.467C131.78 160.699 131.716 160.888 131.53 160.888C131.345 160.888 131.19 160.651 131.187 160.359C131.184 159.963 131.114 159.972 130.912 160.395C130.707 160.825 130.601 160.751 130.47 160.085C130.323 159.342 130.386 159.273 130.886 159.628C131.211 159.858 131.564 160.236 131.672 160.467ZM134.225 159.838C134.576 159.849 134.969 159.661 135.098 159.421C135.237 159.163 135.335 159.273 135.338 159.689C135.34 160.077 135.522 160.486 135.742 160.598C135.961 160.711 135.782 160.788 135.343 160.77C134.904 160.753 134.365 160.559 134.145 160.338C133.884 160.076 133.746 160.102 133.746 160.413C133.746 160.675 133.594 160.888 133.408 160.888C133.222 160.888 133.159 160.698 133.267 160.465C133.376 160.232 133.312 160.042 133.127 160.042C132.941 160.042 132.789 159.84 132.789 159.593C132.789 159.338 132.96 159.289 133.188 159.481C133.407 159.666 133.874 159.826 134.225 159.838ZM143.005 159.382C143.005 159.484 142.861 159.686 142.686 159.83C142.51 159.974 142.366 159.89 142.366 159.643C142.366 159.397 142.51 159.195 142.686 159.195C142.861 159.195 143.005 159.279 143.005 159.382ZM102.418 160.359C102.021 161.031 102.032 161.046 102.539 160.519C102.846 160.2 103.097 159.866 103.097 159.778C103.097 159.43 102.835 159.654 102.418 160.359ZM117.783 160.49C117.783 160.709 117.664 160.888 117.517 160.888C117.371 160.888 117.251 160.611 117.251 160.272C117.251 159.933 117.371 159.754 117.517 159.874C117.664 159.993 117.783 160.271 117.783 160.49ZM132.368 160.545C132.266 160.882 132.191 160.782 132.175 160.289C132.162 159.842 132.237 159.592 132.343 159.733C132.449 159.874 132.46 160.239 132.368 160.545ZM138.848 160.264C138.626 160.618 138.361 160.799 138.259 160.664C138.158 160.529 138.286 160.242 138.544 160.025C139.22 159.458 139.309 159.528 138.848 160.264ZM148.157 159.924C147.792 160.109 147.792 160.201 148.153 160.498C148.463 160.752 148.398 160.833 147.923 160.785C147.059 160.699 147.063 159.8 147.927 159.746C148.293 159.723 148.396 159.803 148.157 159.924ZM141.728 160.465C141.728 160.698 141.584 160.888 141.409 160.888C141.233 160.888 141.089 160.698 141.089 160.465C141.089 160.232 141.233 160.042 141.409 160.042C141.584 160.042 141.728 160.232 141.728 160.465ZM36.8446 160.902C36.7207 161.168 36.7695 161.585 36.9531 161.828C37.3822 162.397 38.3824 161.901 38.2078 161.206C38.0303 160.498 37.1268 160.297 36.8446 160.902ZM124.887 160.745C124.668 160.863 124.308 160.863 124.089 160.745C123.869 160.628 124.049 160.532 124.488 160.532C124.927 160.532 125.106 160.628 124.887 160.745ZM144.834 160.721C144.728 160.861 144.452 160.877 144.222 160.754C143.967 160.619 144.043 160.519 144.415 160.499C144.752 160.48 144.94 160.58 144.834 160.721ZM44.8551 167.904C44.2112 168.759 44.2239 169.069 44.9375 169.926C45.4528 170.544 46.6232 170.626 54.9303 170.626C64.6837 170.626 65.1054 170.553 65.1054 168.863C65.1054 167.402 64.0567 167.239 54.6136 167.239C46.6241 167.239 45.2883 167.33 44.8551 167.904ZM73.0071 167.697C72.7 167.934 72.4484 168.462 72.4484 168.869C72.4484 170.368 73.1086 170.626 76.943 170.626C81.1345 170.626 81.7986 170.254 81.1221 168.285C80.7706 167.262 80.6856 167.24 77.1642 167.252C75.1851 167.259 73.3142 167.459 73.0071 167.697ZM87.6455 167.791C86.8027 168.608 87.1107 169.963 88.1764 170.126C89.1665 170.277 89.6776 169.253 89.1578 168.16C88.7189 167.237 88.3176 167.139 87.6455 167.791ZM95.4128 167.91C94.8857 168.753 95.369 169.934 96.3182 170.122C97.1215 170.281 97.5895 168.766 97.0187 167.854C96.5181 167.054 95.9357 167.074 95.4128 167.91ZM37.8924 174.891C36.4742 175.987 36.5994 178.517 38.1174 179.434C39.9267 180.527 41.3528 177.232 39.9027 175.309C39.1758 174.345 38.7218 174.25 37.8924 174.891ZM26.2196 175.368C25.5724 176.227 25.7624 178.164 26.5618 178.858C28.1597 180.247 29.9128 177.971 28.8707 175.862C28.328 174.764 26.8789 174.494 26.2196 175.368ZM53.9441 176.322C53.1274 177.627 54.371 179.494 55.6301 178.853C56.9228 178.195 56.4631 175.707 55.0488 175.707C54.6529 175.707 54.1558 175.984 53.9441 176.322ZM269.239 197.229C269.33 197.424 269.201 197.582 268.953 197.582C268.705 197.582 268.576 197.424 268.667 197.229C268.757 197.035 268.886 196.877 268.953 196.877C269.02 196.877 269.149 197.035 269.239 197.229Z" fill="#F0F276"/>
</svg>
