<svg width="12" height="11" viewBox="0 0 12 11" fill="none" xmlns="http://www.w3.org/2000/svg">
<path d="M6.38512 4.61615L2.13561 0.366644C1.64762 -0.123083 0.853983 -0.121346 0.365993 0.366644C-0.121998 0.856371 -0.121998 1.64827 0.365993 2.13626L3.72983 5.50009L0.365993 8.86392C-0.121998 9.35191 -0.121998 10.1455 0.365993 10.6335C0.610856 10.8784 0.930394 11 1.25167 11C1.57294 11 1.89248 10.8784 2.13734 10.6335L6.38685 6.38403C6.87484 5.89604 6.87484 5.10241 6.38685 4.61442L6.38512 4.61615Z" fill="#F0F276"/>
<path d="M11.4544 4.61615L7.20664 0.366644C6.71865 -0.123083 5.92502 -0.121346 5.43703 0.366644C4.94904 0.856371 4.94904 1.64827 5.43703 2.13626L8.80086 5.50009L5.43703 8.86392C4.94904 9.35191 4.94904 10.1455 5.43703 10.6335C5.68189 10.8784 6.00143 11 6.32271 11C6.64398 11 6.96352 10.8784 7.20838 10.6335L11.4562 6.38403C11.9441 5.89604 11.9441 5.10241 11.4562 4.61442L11.4544 4.61615Z" fill="#F0F276"/>
</svg>
