<svg width="23" height="15" viewBox="0 0 23 15" fill="none" xmlns="http://www.w3.org/2000/svg">
<path fill-rule="evenodd" clip-rule="evenodd" d="M11.5 0C15.626 0 19.2686 2.25562 22.4379 6.62432L22.6747 6.95593L22.9999 7.41856L22.4379 8.21279C19.2686 12.5815 15.626 14.8371 11.5 14.8371C7.37395 14.8371 3.73132 12.5815 0.562053 8.21279L0.325246 7.88118L0 7.41856L0.325246 6.95593C3.54949 2.36982 7.2708 0 11.5 0ZM11.4997 2.02165C8.39113 2.02165 5.43721 3.74452 2.65081 7.41817C5.43721 11.0918 8.39113 12.8147 11.4997 12.8147C14.5238 12.8147 17.3978 11.1868 20.1097 7.72821L20.3486 7.41829L20.1094 7.10817C17.3933 3.64751 14.5194 2.02165 11.4997 2.02165ZM11.4993 3.96833C13.4047 3.96833 14.9493 5.51295 14.9493 7.41832C14.9493 9.3237 13.4047 10.8683 11.4993 10.8683C9.59396 10.8683 8.04935 9.3237 8.04935 7.41832C8.04935 5.51295 9.59396 3.96833 11.4993 3.96833Z" fill="#CFCEC9"/>
</svg>
