<svg width="18" height="18" viewBox="0 0 18 18" fill="none" xmlns="http://www.w3.org/2000/svg">
<path fill-rule="evenodd" clip-rule="evenodd" d="M9.94639 2.55504C8.73741 4.09219 8.0851 5.99575 8.41327 7.02958C8.8733 8.47714 8.46159 8.79121 6.31038 8.63317C4.43702 8.49526 3.01161 9.25829 1.55197 11.181C-0.472395 13.8456 -0.478435 13.9825 1.31239 15.9626C2.32709 17.083 3.73337 18 4.43702 18C5.92081 18 10.185 12.9245 9.37864 12.1192C9.08168 11.8212 8.14349 12.5702 7.29388 13.7822C5.40239 16.483 1.83786 16.7397 1.83786 14.1748C1.83786 12.0024 3.70821 9.94684 5.68526 9.94684C6.88619 9.94684 6.90229 10.2307 5.78391 11.7085C5.05006 12.6779 6.35367 11.6793 8.68003 9.49083C12.7439 5.66859 14.5327 3.3211 11.401 5.92026C10.1789 6.93395 9.89102 6.89972 9.89102 5.74107C9.89102 3.76402 11.9466 1.89367 14.1189 1.89367C16.6839 1.89367 16.4272 5.4582 13.7263 7.34969C12.5143 8.1993 11.8238 9.19487 12.1922 9.56331C13.0187 10.3898 15.6843 8.26171 17.0724 5.66759C17.8576 4.2009 17.6865 3.27781 16.3587 1.81012C13.9971 -0.799106 12.4429 -0.618916 9.94639 2.55504Z" fill="#727271"/>
</svg>
