<svg width="24" height="24" viewBox="0 0 24 24" fill="none" xmlns="http://www.w3.org/2000/svg">
<path d="M23.9758 7.86689C23.68 8.59148 23.1773 8.85765 22.5266 8.66541C22.1274 8.54711 21.8908 8.26615 21.8168 7.85211C21.802 7.71902 21.7873 7.58593 21.7873 7.45285C21.7873 6.07761 21.7873 4.70238 21.7873 3.34194C21.7873 2.73566 21.5211 2.35118 21.0183 2.23288C20.8557 2.20331 20.693 2.18852 20.5303 2.18852C19.1847 2.18852 17.839 2.18852 16.4786 2.18852C16.3159 2.18852 16.1532 2.18852 15.9906 2.14416C15.473 2.01107 15.1773 1.52309 15.2512 0.916803C15.3104 0.384455 15.7244 0.0147686 16.3011 0.0147686C17.5285 0.0147686 18.7558 0.0147686 19.9684 0.0147686C20.5007 0.0147686 21.0627 0.0147685 21.5654 0.133068C22.8963 0.487966 23.6653 1.39 23.9019 2.73566C23.9019 2.78002 23.9314 2.82438 23.9462 2.86874V7.88168L23.9758 7.86689Z" fill="#9D9C9C"/>
<path d="M2.86055 23.9852C2.6831 23.9409 2.52043 23.8965 2.34299 23.8522C0.982542 23.4677 0.036147 22.2699 0.00657219 20.8651C-0.00821524 19.3568 0.00657219 17.8337 0.00657219 16.3254C0.00657219 15.7043 0.420621 15.2902 1.02691 15.2754C1.69234 15.2607 2.10639 15.6156 2.16554 16.2514C2.16554 16.3549 2.16554 16.4732 2.16554 16.5767C2.16554 17.8928 2.16554 19.2089 2.16554 20.525C2.16554 21.4566 2.52043 21.8115 3.45204 21.8115C4.81249 21.8115 6.18772 21.8115 7.54816 21.8115C8.31711 21.8115 8.76073 22.2847 8.68679 23.0536C8.64243 23.5712 8.31711 23.8522 7.84391 24H2.83097L2.86055 23.9852Z" fill="#9D9C9C"/>
<path d="M16.1101 23.9852C15.3856 23.6895 15.1194 23.2015 15.3116 22.536C15.4299 22.1368 15.7109 21.9002 16.1249 21.8263C16.258 21.8115 16.3911 21.7967 16.5242 21.7967C17.855 21.7967 19.1711 21.7967 20.502 21.7967C20.6351 21.7967 20.7682 21.7967 20.9013 21.7819C21.3745 21.7227 21.7441 21.3826 21.7885 20.8946C21.8181 20.6285 21.8033 20.3623 21.8033 20.0961C21.8033 18.8688 21.8033 17.6266 21.8033 16.3993C21.8033 15.5416 22.4835 15.0536 23.2968 15.3198C23.6813 15.4529 23.8735 15.7486 23.9918 16.1035V21.1164C23.9918 21.1164 23.9623 21.2052 23.9475 21.2495C23.6961 22.5952 22.9123 23.4677 21.6111 23.8669C21.4632 23.9113 21.3005 23.9409 21.1379 23.9852H16.1249H16.1101Z" fill="#9D9C9C"/>
<path d="M4.3672 7.63031C4.3672 6.9353 4.3672 6.2255 4.3672 5.53049C4.3672 4.77634 4.78125 4.37708 5.52062 4.37708C6.92542 4.37708 8.33023 4.37708 9.73503 4.37708C10.504 4.37708 10.9032 4.79112 10.9032 5.54528C10.9032 6.9353 10.9032 8.34011 10.9032 9.73013C10.9032 10.5139 10.4892 10.9131 9.72025 10.9131C8.33023 10.9131 6.94021 10.9131 5.56498 10.9131C4.76646 10.9131 4.3672 10.5139 4.3672 9.71534C4.3672 9.02033 4.3672 8.32532 4.3672 7.63031ZM6.57053 6.56562V8.70979H8.7147V6.56562H6.57053Z" fill="#9D9C9C"/>
<path d="M16.36 4.3623C17.055 4.3623 17.7648 4.3623 18.4598 4.3623C19.214 4.3623 19.6132 4.77634 19.6132 5.51571C19.6132 6.92052 19.6132 8.34011 19.6132 9.74492C19.6132 10.4843 19.1992 10.8835 18.4598 10.8983C17.055 10.8983 15.6354 10.8983 14.2306 10.8983C13.4765 10.8983 13.0772 10.4843 13.0772 9.73013C13.0772 8.32533 13.0772 6.92052 13.0772 5.51571C13.0772 4.74677 13.4913 4.34751 14.2454 4.34751C14.9404 4.34751 15.6502 4.34751 16.3452 4.34751L16.36 4.3623ZM15.2805 8.7098H17.4247V6.56562H15.2805V8.7098Z" fill="#9D9C9C"/>
<path d="M4.3672 16.3401C4.3672 15.6451 4.3672 14.9353 4.3672 14.2403C4.3672 13.5009 4.78125 13.0869 5.52062 13.0869C6.94021 13.0869 8.3598 13.0869 9.7794 13.0869C10.504 13.0869 10.918 13.5009 10.918 14.2255C10.918 15.6451 10.918 17.0647 10.918 18.4843C10.918 19.2237 10.504 19.6377 9.76461 19.6377C8.34502 19.6377 6.92542 19.6377 5.50583 19.6377C4.78125 19.6377 4.3672 19.2237 4.3672 18.4991C4.3672 17.7745 4.3672 17.0647 4.3672 16.3401ZM8.69991 17.4344V15.2902H6.57053V17.4344H8.69991Z" fill="#9D9C9C"/>
<path d="M0.00508168 5.36784C0.00508168 4.67283 0.00508168 3.97782 0.00508168 3.28281C0.00508168 1.40481 1.40989 0.0147874 3.2731 0C4.72227 0 6.15665 0 7.60582 0C8.41913 0 8.90711 0.665434 8.67051 1.44917C8.55222 1.84843 8.28604 2.08503 7.87199 2.15897C7.73891 2.18854 7.59103 2.18854 7.45794 2.18854C6.0975 2.18854 4.72227 2.18854 3.36183 2.18854C2.74076 2.18854 2.35628 2.43992 2.23798 2.92791C2.19362 3.09057 2.19362 3.25324 2.19362 3.4159C2.19362 4.76155 2.19362 6.122 2.19362 7.46765C2.19362 7.6451 2.19362 7.80776 2.14926 7.97042C2.01617 8.48798 1.52819 8.78373 0.921903 8.70979C0.389556 8.65064 0.0346569 8.2366 0.0198694 7.68946C0.0198694 6.92052 0.0198694 6.15157 0.0198694 5.36784H0.00508168Z" fill="#9D9C9C"/>
<path d="M16.8919 19.6229C16.3595 19.6229 15.8124 19.6229 15.28 19.6229C14.4667 19.6229 13.9787 18.9427 14.2153 18.159C14.3336 17.7597 14.6146 17.5379 15.0139 17.464C15.1322 17.4492 15.2653 17.4344 15.3836 17.4344C16.3743 17.4344 17.3799 17.4344 18.3706 17.4344C18.5333 17.4344 18.7107 17.4344 18.8734 17.4936C19.3614 17.6266 19.6571 18.1146 19.5832 18.6618C19.524 19.2237 19.1248 19.5934 18.5481 19.6082C17.9861 19.6082 17.4242 19.6082 16.8623 19.6082L16.8919 19.6229Z" fill="#9D9C9C"/>
<path d="M15.2811 14.7135C15.2663 14.9797 15.2811 15.2606 15.222 15.5268C15.1333 16.0591 14.7192 16.3549 14.1425 16.3549C13.5954 16.3549 13.1813 16.0296 13.1222 15.512C13.0778 15.024 13.063 14.536 13.0926 14.0481C13.137 13.4418 13.5954 13.0721 14.2016 13.0869C14.8079 13.1017 15.222 13.5009 15.2516 14.1072C15.2516 14.3142 15.2516 14.5065 15.2516 14.7135H15.2663H15.2811Z" fill="#9D9C9C"/>
<path d="M17.9718 15.2754C17.7057 15.2606 17.4247 15.2754 17.1585 15.2163C16.641 15.1276 16.3304 14.6987 16.3452 14.1516C16.3452 13.6044 16.6706 13.1608 17.1881 13.1165C17.6761 13.0721 18.1641 13.0573 18.6521 13.1017C19.2584 13.146 19.628 13.6044 19.5985 14.2107C19.5837 14.817 19.1844 15.2311 18.5633 15.2606C18.3563 15.2606 18.1641 15.2606 17.9571 15.2606C17.9571 15.2606 17.9571 15.2606 17.9571 15.2754H17.9718Z" fill="#9D9C9C"/>
</svg>
